<?xml version="1.0" encoding="utf-8"?><svg
  viewBox="0 0 1170 312"
  xmlns="http://www.w3.org/2000/svg"
  xmlns:xlink="http://www.w3.org/1999/xlink">
  <style>
    :root > svg {
      display: none;
    }
    :root > svg:target {
      display: block;
    }
  </style>
  <svg
    fill="none"
    viewBox="0 0 120 40"
    id="apple-store-icon"
    xmlns="http://www.w3.org/2000/svg">
    <rect x=".5" y=".5" width="119" height="39" rx="6.5" fill="#0C0D10" />
    <path
      d="M81.526 19.201v2.291H80.09v1.502h1.436V28.1c0 1.744.788 2.44 2.772 2.44.349 0 .681-.04.971-.09v-1.486c-.249.025-.406.041-.68.041-.888 0-1.278-.415-1.278-1.361v-4.649h1.958v-1.502H83.31v-2.291h-1.784ZM90.323 30.664c2.64 0 4.259-1.768 4.259-4.698 0-2.914-1.627-4.69-4.259-4.69-2.64 0-4.266 1.776-4.266 4.69 0 2.93 1.618 4.698 4.266 4.698Zm0-1.585c-1.552 0-2.423-1.137-2.423-3.113 0-1.959.871-3.104 2.423-3.104 1.544 0 2.424 1.145 2.424 3.104 0 1.967-.88 3.113-2.424 3.113ZM95.967 30.49h1.784v-5.337c0-1.27.955-2.125 2.308-2.125.315 0 .847.058.996.108v-1.76c-.191-.05-.531-.075-.797-.075-1.179 0-2.183.648-2.44 1.536h-.133V21.45h-1.718v9.039ZM105.486 22.795c1.32 0 2.183.922 2.225 2.341h-4.566c.1-1.411 1.021-2.34 2.341-2.34Zm2.217 5.255c-.332.705-1.071 1.095-2.15 1.095-1.428 0-2.349-1.004-2.408-2.59v-.1h6.384v-.622c0-2.839-1.519-4.557-4.034-4.557-2.549 0-4.167 1.835-4.167 4.723 0 2.889 1.585 4.665 4.175 4.665 2.067 0 3.511-.996 3.918-2.614h-1.718ZM69.822 27.152c.138 2.22 1.988 3.64 4.74 3.64 2.943 0 4.784-1.49 4.784-3.864 0-1.867-1.05-2.9-3.596-3.493l-1.368-.335c-1.617-.379-2.271-.887-2.271-1.773 0-1.118 1.015-1.85 2.538-1.85 1.445 0 2.443.715 2.624 1.859h1.876c-.112-2.09-1.954-3.562-4.474-3.562-2.71 0-4.517 1.471-4.517 3.682 0 1.824 1.024 2.908 3.27 3.433l1.6.387c1.643.387 2.365.955 2.365 1.902 0 1.1-1.135 1.901-2.684 1.901-1.66 0-2.813-.748-2.977-1.927h-1.91ZM51.335 21.301c-1.229 0-2.291.614-2.839 1.644h-.133V21.45h-1.718v12.044h1.785V29.12h.14c.474.955 1.495 1.52 2.782 1.52 2.282 0 3.735-1.802 3.735-4.674 0-2.872-1.453-4.665-3.752-4.665Zm-.506 7.736c-1.495 0-2.432-1.178-2.432-3.063 0-1.892.938-3.07 2.44-3.07 1.51 0 2.415 1.153 2.415 3.062 0 1.918-.904 3.071-2.423 3.071ZM61.332 21.301c-1.229 0-2.291.614-2.84 1.644h-.132V21.45h-1.718v12.044h1.784V29.12h.142c.473.955 1.494 1.52 2.78 1.52 2.283 0 3.736-1.802 3.736-4.674 0-2.872-1.453-4.665-3.752-4.665Zm-.507 7.736c-1.494 0-2.432-1.178-2.432-3.063 0-1.892.938-3.07 2.44-3.07 1.511 0 2.416 1.153 2.416 3.062 0 1.918-.905 3.071-2.424 3.071ZM43.443 30.49h2.048l-4.483-12.415h-2.073L34.452 30.49h1.98l1.143-3.295h4.732l1.136 3.295Zm-3.57-10.16h.146l1.798 5.247h-3.751l1.806-5.248ZM35.651 8.71v5.99h2.162c1.785 0 2.819-1.1 2.819-3.013 0-1.885-1.042-2.976-2.819-2.976h-2.162Zm.93.848h1.129c1.24 0 1.975.788 1.975 2.141 0 1.374-.722 2.154-1.975 2.154h-1.13V9.558ZM43.797 14.787c1.32 0 2.129-.884 2.129-2.349 0-1.457-.814-2.345-2.13-2.345-1.32 0-2.133.888-2.133 2.345 0 1.465.81 2.35 2.134 2.35Zm0-.793c-.776 0-1.212-.568-1.212-1.556 0-.98.436-1.552 1.212-1.552.772 0 1.212.573 1.212 1.552 0 .984-.44 1.556-1.212 1.556ZM52.818 10.18h-.892l-.806 3.45h-.07l-.93-3.45h-.855l-.93 3.45h-.066l-.81-3.45h-.904L47.8 14.7h.917l.93-3.329h.07l.934 3.329h.926l1.241-4.52ZM53.846 14.7h.892v-2.644c0-.705.42-1.145 1.079-1.145.66 0 .975.36.975 1.087V14.7h.893v-2.926c0-1.075-.556-1.681-1.565-1.681-.68 0-1.129.303-1.349.805h-.066v-.718h-.86v4.52ZM59.09 14.7h.892V8.416h-.892V14.7ZM63.338 14.787c1.32 0 2.13-.884 2.13-2.349 0-1.457-.814-2.345-2.13-2.345-1.32 0-2.133.888-2.133 2.345 0 1.465.81 2.35 2.133 2.35Zm0-.793c-.776 0-1.212-.568-1.212-1.556 0-.98.436-1.552 1.212-1.552.772 0 1.212.573 1.212 1.552 0 .984-.44 1.556-1.212 1.556ZM68.126 14.023c-.485 0-.838-.236-.838-.643 0-.398.282-.61.905-.652l1.104-.07v.378c0 .56-.498.987-1.17.987Zm-.228.752c.594 0 1.087-.258 1.357-.71h.07v.635h.86v-3.088c0-.954-.64-1.519-1.772-1.519-1.025 0-1.756.498-1.847 1.274h.863c.1-.32.444-.502.942-.502.61 0 .926.27.926.747v.39l-1.225.07c-1.075.067-1.68.536-1.68 1.35 0 .826.634 1.353 1.506 1.353ZM73.213 14.775c.623 0 1.15-.295 1.42-.789h.07v.714h.855V8.416h-.892v2.482h-.067c-.245-.498-.768-.793-1.386-.793-1.141 0-1.876.905-1.876 2.333 0 1.432.726 2.337 1.876 2.337Zm.253-3.869c.747 0 1.216.594 1.216 1.536 0 .946-.465 1.532-1.216 1.532-.755 0-1.208-.577-1.208-1.536 0-.95.457-1.532 1.208-1.532ZM81.344 14.787c1.32 0 2.13-.884 2.13-2.349 0-1.457-.814-2.345-2.13-2.345-1.32 0-2.133.888-2.133 2.345 0 1.465.81 2.35 2.133 2.35Zm0-.793c-.776 0-1.212-.568-1.212-1.556 0-.98.436-1.552 1.212-1.552.772 0 1.212.573 1.212 1.552 0 .984-.44 1.556-1.212 1.556ZM84.655 14.7h.892v-2.644c0-.705.42-1.145 1.08-1.145.66 0 .975.36.975 1.087V14.7h.892v-2.926c0-1.075-.556-1.681-1.565-1.681-.68 0-1.129.303-1.349.805h-.066v-.718h-.86v4.52ZM92.604 9.055v1.146h-.718v.751h.718v2.553c0 .871.394 1.22 1.386 1.22.174 0 .34-.02.485-.046v-.743c-.124.013-.203.021-.34.021-.444 0-.64-.208-.64-.68v-2.325h.98v-.751h-.98V9.055h-.891ZM95.673 14.7h.893v-2.64c0-.684.406-1.145 1.137-1.145.63 0 .967.365.967 1.087V14.7h.892v-2.918c0-1.075-.593-1.685-1.556-1.685-.68 0-1.158.303-1.378.81h-.07v-2.49h-.885V14.7ZM102.781 10.852c.66 0 1.092.461 1.113 1.17h-2.283c.05-.705.51-1.17 1.17-1.17Zm1.108 2.628c-.166.352-.535.548-1.075.548-.713 0-1.174-.503-1.203-1.295v-.05h3.191v-.311c0-1.42-.759-2.279-2.017-2.279-1.274 0-2.083.917-2.083 2.362 0 1.444.793 2.332 2.087 2.332 1.034 0 1.756-.498 1.959-1.307h-.859ZM24.769 20.3a4.989 4.989 0 0 1 2.357-4.151 5.128 5.128 0 0 0-3.992-2.158c-1.679-.176-3.307 1.005-4.163 1.005-.872 0-2.19-.987-3.608-.958a5.359 5.359 0 0 0-4.473 2.728c-1.934 3.348-.491 8.27 1.361 10.976.927 1.325 2.01 2.805 3.428 2.753 1.387-.058 1.905-.885 3.58-.885 1.658 0 2.144.885 3.59.852 1.489-.024 2.426-1.332 3.32-2.67a10.96 10.96 0 0 0 1.52-3.092 4.824 4.824 0 0 1-2.92-4.4ZM22.037 12.211a4.872 4.872 0 0 0 1.115-3.49 4.957 4.957 0 0 0-3.208 1.66 4.678 4.678 0 0 0-1.143 3.36 4.148 4.148 0 0 0 3.236-1.53Z"
      fill="#fff" />
    <rect
      x=".5"
      y=".5"
      width="119"
      height="39"
      rx="6.5"
      stroke="#A6A6A6" /></svg
  ><svg
    fill="none"
    viewBox="0 0 44 44"
    id="asian-food-icon"
    xmlns="http://www.w3.org/2000/svg">
    <g clip-path="url(#aba)">
      <g clip-path="url(#abb)" fill="#363853">
        <path
          d="M15.132 13.567h2.124c.552 0 1 .448 1 1v1.465a.644.644 0 1 0 1.29 0v-1.465a2.292 2.292 0 0 0-2.29-2.29h-2.124a.984.984 0 0 1 0-1.965h4.711a2.275 2.275 0 0 0 2.272-2.273 2.275 2.275 0 0 0-2.272-2.272h-3.77a.645.645 0 0 0 0 1.29h3.77a.984.984 0 0 1 0 1.965h-4.711a2.275 2.275 0 0 0-2.273 2.272 2.275 2.275 0 0 0 2.273 2.273ZM7.389 17.892h2.108c.544 0 .987.443.987.988v1.454a.644.644 0 1 0 1.29 0V18.88a2.279 2.279 0 0 0-2.277-2.277H7.39a.972.972 0 0 1 0-1.94h2.465a.645.645 0 1 0 0-1.29H7.389a2.262 2.262 0 0 0-2.26 2.26 2.262 2.262 0 0 0 2.26 2.26ZM25.652 26.813a.645.645 0 1 0 0-1.29.645.645 0 0 0 0 1.29ZM28.832 28.273a.645.645 0 1 0 0-1.289.645.645 0 0 0 0 1.29ZM30.723 30.508a.645.645 0 1 0 0-1.29.645.645 0 0 0 0 1.29ZM28.059 25.266a.644.644 0 1 0 0-1.29.644.644 0 0 0 0 1.29ZM25.91 30.938a.645.645 0 1 0 0-1.29.645.645 0 0 0 0 1.29Z" />
        <path
          d="M42.911 22.81h-1.828l.904-1.867A2.507 2.507 0 0 0 44 18.49a2.507 2.507 0 0 0-2.102-2.47c-1.315-2.37-3.885-4.149-7.001-4.86v-.048a.644.644 0 0 0-1.264-.176 13.86 13.86 0 0 0-1.197-.1.644.644 0 0 0-1.163 0c-.405.017-.804.05-1.197.1a.644.644 0 0 0-1.264.176v.049c-3.116.71-5.686 2.49-7.001 4.859a2.506 2.506 0 0 0-2.093 2.685c-2.975.277-5.649 1.52-7.655 3.386h-4.05a.908.908 0 0 0-.69.318H5.43a2.118 2.118 0 0 0-1.957-1.337 2.106 2.106 0 0 0-2.082 2.397 2.107 2.107 0 0 0-1.066 3.104 2.106 2.106 0 0 0 1.778 3.229c.878 0 1.648-.554 1.958-1.337h1.704a.91.91 0 0 0 .586.623l2.02.686a10.897 10.897 0 0 0-.002 1.223c-.316.076-.61.207-.873.383a2.701 2.701 0 0 0-1.51-.46 2.721 2.721 0 0 0-2.717 2.719l.002.068h-.754c-.426 0-.803.24-.985.624a1.08 1.08 0 0 0 .144 1.156l1.934 2.35c.207.252.514.397.84.397h27.26a.644.644 0 1 0 0-1.29H4.545l-1.604-1.948h39.544l-1.603 1.949h-6.164a.645.645 0 1 0 0 1.289h6.258c.327 0 .633-.145.84-.397l1.934-2.35a1.08 1.08 0 0 0 .144-1.156 1.079 1.079 0 0 0-.984-.624h-.638a5.411 5.411 0 0 0 .64-3.671.645.645 0 0 0-.52-.52 5.409 5.409 0 0 0-5.008 1.731c-.37-.2-.79-.316-1.237-.325v-1.226h.688c1.09 0 1.977-.887 1.977-1.977v-.865h4.1c.6 0 1.088-.488 1.088-1.088v-1.866c0-.6-.488-1.088-1.089-1.088ZM6.291 33.707H4.56l-.002-.068a1.43 1.43 0 0 1 2.053-1.284 2.7 2.7 0 0 0-.323 1.284c0 .023.002.045.003.068Zm32.225-1.784a4.117 4.117 0 0 1 3.184-1.195 4.118 4.118 0 0 1-1.005 2.98h-1.063l.881-.881a.645.645 0 1 0-.911-.912l-.914.913a2.71 2.71 0 0 0-.348-.717c.057-.064.115-.127.176-.188Zm-13.013-17.98a10.714 10.714 0 0 1 3.309-1.452v.663a.644.644 0 1 0 1.29 0v-.918c.364-.053.735-.087 1.108-.106v1.024a.645.645 0 0 0 1.289 0V12.13c.373.02.743.054 1.109.106v.918a.645.645 0 0 0 1.289 0v-.663c1.206.308 2.333.799 3.309 1.452.95.637 1.724 1.406 2.288 2.256a2.526 2.526 0 0 0-.604.375 2.506 2.506 0 0 0-1.607-.587c-.595 0-1.163.215-1.607.587a2.506 2.506 0 0 0-1.607-.587c-.595 0-1.163.215-1.607.587a2.506 2.506 0 0 0-1.608-.587c-.594 0-1.162.215-1.607.587a2.506 2.506 0 0 0-1.607-.587c-.594 0-1.162.215-1.607.587a2.506 2.506 0 0 0-1.607-.587c-.594 0-1.162.215-1.607.587a2.524 2.524 0 0 0-.605-.375c.565-.85 1.339-1.62 2.29-2.256Zm-3.291 3.333c.43 0 .832.233 1.05.607a.645.645 0 0 0 1.114 0c.217-.374.62-.607 1.05-.607.43 0 .832.233 1.05.607a.645.645 0 0 0 1.115 0c.217-.374.619-.607 1.05-.607.43 0 .832.233 1.049.607a.645.645 0 0 0 1.115 0c.217-.374.62-.607 1.05-.607.43 0 .832.233 1.049.607a.645.645 0 0 0 1.115 0c.217-.374.62-.607 1.05-.607.43 0 .832.233 1.05.607a.645.645 0 0 0 1.114 0c.217-.374.62-.607 1.05-.607.43 0 .832.233 1.05.607a.645.645 0 0 0 1.114 0c.218-.374.62-.607 1.05-.607a1.215 1.215 0 0 1 0 2.427c-.43 0-.832-.232-1.05-.607a.645.645 0 0 0-1.114 0c-.218.375-.62.608-1.05.608-.43 0-.833-.233-1.05-.608a.645.645 0 0 0-1.115 0c-.217.375-.62.608-1.05.608-.43 0-.832-.233-1.049-.608a.645.645 0 0 0-1.115 0c-.217.375-.62.608-1.05.608-.43 0-.832-.233-1.05-.608a.645.645 0 0 0-1.114 0c-.218.375-.62.608-1.05.608-.43 0-.832-.233-1.05-.608a.645.645 0 0 0-1.114 0 1.22 1.22 0 0 1-.54.493 13.366 13.366 0 0 0-4.927-.942 1.215 1.215 0 0 1 1.202-1.37ZM8.392 23.38h2.472a11.78 11.78 0 0 0-.712.983h-1.76v-.983Zm-2.66 3.796H3.558a.644.644 0 0 0-.643.59.818.818 0 0 1-.81.747.815.815 0 0 1-.519-1.443.645.645 0 0 0 0-.993.815.815 0 0 1 .519-1.443c.42 0 .776.327.81.746a.644.644 0 0 0 .643.59h2.176v1.206Zm.221-2.494H4.061a2.129 2.129 0 0 0-1.36-1.248.813.813 0 1 1 1.583-.327.645.645 0 0 0 .642.591h2.177v.665h-.46a.909.909 0 0 0-.69.319Zm4.48 9.025H7.58a1.43 1.43 0 0 1 1.427-1.497 1.43 1.43 0 0 1 1.428 1.429l-.002.068Zm19.879 0h-2.244l-.002-.068a1.43 1.43 0 0 1 2.439-1.01 2.704 2.704 0 0 0-.196 1.01c0 .023.002.045.003.068Zm-.817-2.786a2.721 2.721 0 0 0-2.719 2.718c0 .023.002.045.003.068H11.722l.002-.068c0-1.273-.88-2.344-2.063-2.638a9.734 9.734 0 0 1-.016-.795l6.592 2.239a4.113 4.113 0 0 0 3.753-.556 4.106 4.106 0 0 0 1.732-3.375c0-.484-.083-.96-.247-1.413a.645.645 0 0 0-1.212.44c.113.311.17.639.17.973a2.83 2.83 0 0 1-1.195 2.327 2.83 2.83 0 0 1-2.587.383l-9.629-3.27v-2.302h10.55c.323 0 .641.055.946.162a.644.644 0 1 0 .427-1.217 4.142 4.142 0 0 0-1.373-.234h-5.845c2.056-2.676 5.438-4.428 9.256-4.428 6.253 0 11.34 4.696 11.34 10.468 0 .206-.006.412-.02.616-.389.108-.743.3-1.042.556a2.705 2.705 0 0 0-1.766-.654Zm4.959 2.786h-2.853a1.43 1.43 0 0 1 1.427-1.497c.787 0 1.428.64 1.428 1.429 0 .023 0 .046-.002.068Zm.404-2.486a2.72 2.72 0 0 0-.297.175 2.706 2.706 0 0 0-.964-.413 10.977 10.977 0 0 0-.01-1.287h1.271v1.525Zm2.665 2.418c0 .023-.002.045-.003.068h-1.777l.002-.068a2.7 2.7 0 0 0-.313-1.266 1.43 1.43 0 0 1 2.09 1.265Zm0-5.92c0 .38-.309.688-.688.688h-3.407c-.098-.53-.232-1.05-.404-1.553h4.499v.865Zm5.188-2.154H32.493a11.526 11.526 0 0 0-.853-1.464h2.735a.644.644 0 1 0 0-1.29h-3.756a12.413 12.413 0 0 0-2.077-1.82 2.46 2.46 0 0 0 1.705-.586 2.507 2.507 0 0 0 1.607.588c.595 0 1.163-.215 1.608-.588a2.506 2.506 0 0 0 1.607.588c.594 0 1.162-.215 1.607-.588a2.506 2.506 0 0 0 1.607.588c.594 0 1.162-.215 1.607-.588.215.18.459.323.72.423l-.96 1.984h-2.267a.644.644 0 1 0 0 1.289h5.328v1.464Z" />
      </g>
    </g>
    <defs>
      <clipPath id="aba"><path fill="#fff" d="M0 0h44v44H0z" /></clipPath>
      <clipPath id="abb"><path fill="#fff" d="M0 0h44v44H0z" /></clipPath>
    </defs></svg
  ><svg
    fill="none"
    viewBox="0 0 21 20"
    id="basket-icon"
    xmlns="http://www.w3.org/2000/svg">
    <path
      d="m1 1.176 2.08.356.963 11.34c.077.926.86 1.636 1.8 1.633h10.909a1.794 1.794 0 0 0 1.785-1.528l.949-6.482a1.328 1.328 0 0 0-1.135-1.501c-.064-.009-14.937-.014-14.937-.014M12.375 8.633h2.773"
      stroke="#363853"
      stroke-width="1.5"
      stroke-linecap="round"
      stroke-linejoin="round" />
    <path
      fill-rule="evenodd"
      clip-rule="evenodd"
      d="M5.404 17.932a.54.54 0 0 1 .544.538.541.541 0 0 1-.544.539.541.541 0 0 1-.544-.54.54.54 0 0 1 .544-.537ZM16.685 17.932c.3 0 .545.24.545.538a.542.542 0 0 1-.545.539.541.541 0 0 1-.544-.54.54.54 0 0 1 .544-.537Z"
      fill="#363853"
      stroke="#363853"
      stroke-width="1.5"
      stroke-linecap="round"
      stroke-linejoin="round" /></svg
  ><svg
    fill="none"
    viewBox="0 0 44 44"
    id="burger-icon"
    xmlns="http://www.w3.org/2000/svg">
    <g clip-path="url(#ada)" fill="#fff">
      <path
        d="M44 20.336c0-1.69-1.09-3.128-2.602-3.653-.232-5.241-2.189-9.263-5.825-11.966C32.254 2.251 27.688 1 22 1 16.312 1 11.746 2.25 8.427 4.717 4.791 7.42 2.834 11.442 2.602 16.683A3.873 3.873 0 0 0 0 20.336c0 .99.374 1.893.988 2.578A3.851 3.851 0 0 0 0 25.492c0 1.7 1.103 3.146 2.63 3.663.553 5.89 5.56 10.517 11.636 10.517h15.468c6.076 0 11.084-4.627 11.636-10.517A3.873 3.873 0 0 0 44 25.492c0-.99-.374-1.893-.988-2.578A3.852 3.852 0 0 0 44 20.336ZM22 3.578c7.393 0 16.151 2.28 16.803 12.89H5.197C5.849 5.859 14.607 3.579 22 3.579ZM3.867 19.047h36.266c.71 0 1.289.578 1.289 1.289 0 .71-.578 1.289-1.29 1.289H3.868a1.29 1.29 0 0 1-1.289-1.29c0-.71.578-1.288 1.29-1.288Zm25.867 18.047H14.266c-4.581 0-8.383-3.367-9.016-7.735h1.195c.862 0 1.134.293 1.677.878.667.718 1.58 1.7 3.566 1.7 2 0 2.889-.993 3.538-1.718.513-.572.77-.86 1.618-.86.848 0 1.105.288 1.617.86.65.725 1.54 1.718 3.539 1.718 2 0 2.89-.993 3.538-1.718.513-.572.77-.86 1.618-.86.848 0 1.105.288 1.618.86.65.725 1.539 1.718 3.538 1.718 2 0 2.89-.993 3.539-1.718.513-.572.77-.86 1.618-.86h1.281c-.633 4.367-4.435 7.735-9.016 7.735ZM40.133 26.78h-2.664c-2 0-2.89.993-3.539 1.719-.512.572-.77.86-1.617.86-.848 0-1.106-.288-1.618-.86-.65-.726-1.539-1.719-3.539-1.719s-2.889.993-3.538 1.719c-.513.572-.77.86-1.618.86-.848 0-1.105-.288-1.618-.86-.65-.726-1.538-1.719-3.538-1.719-2 0-2.89.993-3.539 1.719-.512.572-.77.86-1.617.86-.862 0-1.135-.294-1.677-.878-.667-.718-1.58-1.7-3.566-1.7H3.867a1.29 1.29 0 0 1-1.289-1.29c0-.71.578-1.289 1.29-1.289h36.265a1.29 1.29 0 0 1 0 2.578Z" />
      <path
        d="M14.266 13.89a1.289 1.289 0 1 0 0-2.577 1.289 1.289 0 0 0 0 2.578ZM29.734 13.89a1.289 1.289 0 1 0 0-2.577 1.289 1.289 0 0 0 0 2.578ZM24.578 11.313a1.289 1.289 0 1 0 0-2.579 1.289 1.289 0 0 0 0 2.579ZM19.422 8.734a1.289 1.289 0 1 0 0-2.578 1.289 1.289 0 0 0 0 2.578Z" />
    </g>
    <defs>
      <clipPath id="ada"><path fill="#fff" d="M0 0h44v44H0z" /></clipPath>
    </defs></svg
  ><svg
    fill="none"
    viewBox="0 0 44 44"
    id="christmas-dinner_2"
    xmlns="http://www.w3.org/2000/svg">
    <g clip-path="url(#aea)" fill="#363853">
      <path
        d="M15.132 13.567h2.124c.552 0 1 .448 1 1v1.465a.644.644 0 1 0 1.29 0v-1.465a2.292 2.292 0 0 0-2.29-2.29h-2.124a.984.984 0 0 1 0-1.965h4.711a2.275 2.275 0 0 0 2.272-2.273 2.275 2.275 0 0 0-2.272-2.272h-3.77a.645.645 0 0 0 0 1.29h3.77a.984.984 0 0 1 0 1.965h-4.711a2.275 2.275 0 0 0-2.273 2.272 2.275 2.275 0 0 0 2.273 2.273ZM7.389 17.892h2.108c.544 0 .987.443.987.988v1.454a.644.644 0 1 0 1.29 0V18.88a2.279 2.279 0 0 0-2.277-2.277H7.39a.972.972 0 0 1 0-1.94h2.465a.645.645 0 1 0 0-1.29H7.389a2.262 2.262 0 0 0-2.26 2.26 2.262 2.262 0 0 0 2.26 2.26ZM25.652 26.813a.645.645 0 1 0 0-1.29.645.645 0 0 0 0 1.29ZM28.832 28.273a.645.645 0 1 0 0-1.289.645.645 0 0 0 0 1.29ZM30.723 30.508a.645.645 0 1 0 0-1.29.645.645 0 0 0 0 1.29ZM28.059 25.266a.644.644 0 1 0 0-1.29.644.644 0 0 0 0 1.29ZM25.91 30.938a.645.645 0 1 0 0-1.29.645.645 0 0 0 0 1.29Z" />
      <path
        d="M42.911 22.81h-1.828l.904-1.867A2.507 2.507 0 0 0 44 18.49a2.507 2.507 0 0 0-2.102-2.47c-1.315-2.37-3.885-4.149-7.001-4.86v-.048a.644.644 0 0 0-1.264-.176 13.86 13.86 0 0 0-1.197-.1.644.644 0 0 0-1.163 0c-.405.017-.804.05-1.197.1a.644.644 0 0 0-1.264.176v.049c-3.116.71-5.686 2.49-7.001 4.859a2.506 2.506 0 0 0-2.093 2.685c-2.975.277-5.649 1.52-7.655 3.386h-4.05a.908.908 0 0 0-.69.318H5.43a2.118 2.118 0 0 0-1.957-1.337 2.106 2.106 0 0 0-2.082 2.397 2.107 2.107 0 0 0-1.066 3.104 2.106 2.106 0 0 0 1.778 3.229c.878 0 1.648-.554 1.958-1.337h1.704a.91.91 0 0 0 .586.623l2.02.686a10.897 10.897 0 0 0-.002 1.223c-.316.076-.61.207-.873.383a2.701 2.701 0 0 0-1.51-.46 2.721 2.721 0 0 0-2.717 2.719l.002.068h-.754c-.426 0-.803.24-.985.624a1.08 1.08 0 0 0 .144 1.156l1.934 2.35c.207.252.514.397.84.397h27.26a.644.644 0 1 0 0-1.29H4.545l-1.604-1.948h39.544l-1.603 1.949h-6.164a.645.645 0 1 0 0 1.289h6.258c.327 0 .633-.145.84-.397l1.934-2.35a1.08 1.08 0 0 0 .144-1.156 1.079 1.079 0 0 0-.984-.624h-.638a5.411 5.411 0 0 0 .64-3.671.645.645 0 0 0-.52-.52 5.409 5.409 0 0 0-5.008 1.731c-.37-.2-.79-.316-1.237-.325v-1.226h.688c1.09 0 1.977-.887 1.977-1.977v-.865h4.1c.6 0 1.088-.488 1.088-1.088v-1.866c0-.6-.488-1.088-1.089-1.088ZM6.291 33.707H4.56l-.002-.068a1.43 1.43 0 0 1 2.053-1.284 2.7 2.7 0 0 0-.323 1.284c0 .023.002.045.003.068Zm32.225-1.784a4.117 4.117 0 0 1 3.184-1.195 4.118 4.118 0 0 1-1.005 2.98h-1.063l.881-.881a.645.645 0 1 0-.911-.912l-.914.913a2.71 2.71 0 0 0-.348-.717c.057-.064.115-.127.176-.188Zm-13.013-17.98a10.714 10.714 0 0 1 3.309-1.452v.663a.644.644 0 1 0 1.29 0v-.918c.364-.053.735-.087 1.108-.106v1.024a.645.645 0 0 0 1.289 0V12.13c.373.02.743.054 1.109.106v.918a.645.645 0 0 0 1.289 0v-.663c1.206.308 2.333.799 3.309 1.452.95.637 1.724 1.406 2.288 2.256a2.526 2.526 0 0 0-.604.375 2.506 2.506 0 0 0-1.607-.587c-.595 0-1.163.215-1.607.587a2.506 2.506 0 0 0-1.607-.587c-.595 0-1.163.215-1.607.587a2.506 2.506 0 0 0-1.608-.587c-.594 0-1.162.215-1.607.587a2.506 2.506 0 0 0-1.607-.587c-.594 0-1.162.215-1.607.587a2.506 2.506 0 0 0-1.607-.587c-.594 0-1.162.215-1.607.587a2.524 2.524 0 0 0-.605-.375c.565-.85 1.339-1.62 2.29-2.256Zm-3.291 3.333c.43 0 .832.233 1.05.607a.645.645 0 0 0 1.114 0c.217-.374.62-.607 1.05-.607.43 0 .832.233 1.05.607a.645.645 0 0 0 1.115 0c.217-.374.619-.607 1.05-.607.43 0 .832.233 1.049.607a.645.645 0 0 0 1.115 0c.217-.374.62-.607 1.05-.607.43 0 .832.233 1.049.607a.645.645 0 0 0 1.115 0c.217-.374.62-.607 1.05-.607.43 0 .832.233 1.05.607a.645.645 0 0 0 1.114 0c.217-.374.62-.607 1.05-.607.43 0 .832.233 1.05.607a.645.645 0 0 0 1.114 0c.218-.374.62-.607 1.05-.607a1.215 1.215 0 0 1 0 2.427c-.43 0-.832-.232-1.05-.607a.645.645 0 0 0-1.114 0c-.218.375-.62.608-1.05.608-.43 0-.833-.233-1.05-.608a.645.645 0 0 0-1.115 0c-.217.375-.62.608-1.05.608-.43 0-.832-.233-1.049-.608a.645.645 0 0 0-1.115 0c-.217.375-.62.608-1.05.608-.43 0-.832-.233-1.05-.608a.645.645 0 0 0-1.114 0c-.218.375-.62.608-1.05.608-.43 0-.832-.233-1.05-.608a.645.645 0 0 0-1.114 0 1.22 1.22 0 0 1-.54.493 13.366 13.366 0 0 0-4.927-.942 1.215 1.215 0 0 1 1.202-1.37ZM8.392 23.38h2.472a11.78 11.78 0 0 0-.712.983h-1.76v-.983Zm-2.66 3.796H3.558a.644.644 0 0 0-.643.59.818.818 0 0 1-.81.747.815.815 0 0 1-.519-1.443.645.645 0 0 0 0-.993.815.815 0 0 1 .519-1.443c.42 0 .776.327.81.746a.644.644 0 0 0 .643.59h2.176v1.206Zm.221-2.494H4.061a2.129 2.129 0 0 0-1.36-1.248.813.813 0 1 1 1.583-.327.645.645 0 0 0 .642.591h2.177v.665h-.46a.909.909 0 0 0-.69.319Zm4.48 9.025H7.58a1.43 1.43 0 0 1 1.427-1.497 1.43 1.43 0 0 1 1.428 1.429l-.002.068Zm19.879 0h-2.244l-.002-.068a1.43 1.43 0 0 1 2.439-1.01 2.704 2.704 0 0 0-.196 1.01c0 .023.002.045.003.068Zm-.817-2.786a2.721 2.721 0 0 0-2.719 2.718c0 .023.002.045.003.068H11.722l.002-.068c0-1.273-.88-2.344-2.063-2.638a9.734 9.734 0 0 1-.016-.795l6.592 2.239a4.113 4.113 0 0 0 3.753-.556 4.106 4.106 0 0 0 1.732-3.375c0-.484-.083-.96-.247-1.413a.645.645 0 0 0-1.212.44c.113.311.17.639.17.973a2.83 2.83 0 0 1-1.195 2.327 2.83 2.83 0 0 1-2.587.383l-9.629-3.27v-2.302h10.55c.323 0 .641.055.946.162a.644.644 0 1 0 .427-1.217 4.142 4.142 0 0 0-1.373-.234h-5.845c2.056-2.676 5.438-4.428 9.256-4.428 6.253 0 11.34 4.696 11.34 10.468 0 .206-.006.412-.02.616-.389.108-.743.3-1.042.556a2.705 2.705 0 0 0-1.766-.654Zm4.959 2.786h-2.853a1.43 1.43 0 0 1 1.427-1.497c.787 0 1.428.64 1.428 1.429 0 .023 0 .046-.002.068Zm.404-2.486a2.72 2.72 0 0 0-.297.175 2.706 2.706 0 0 0-.964-.413 10.977 10.977 0 0 0-.01-1.287h1.271v1.525Zm2.665 2.418c0 .023-.002.045-.003.068h-1.777l.002-.068a2.7 2.7 0 0 0-.313-1.266 1.43 1.43 0 0 1 2.09 1.265Zm0-5.92c0 .38-.309.688-.688.688h-3.407c-.098-.53-.232-1.05-.404-1.553h4.499v.865Zm5.188-2.154H32.493a11.526 11.526 0 0 0-.853-1.464h2.735a.644.644 0 1 0 0-1.29h-3.756a12.413 12.413 0 0 0-2.077-1.82 2.46 2.46 0 0 0 1.705-.586 2.507 2.507 0 0 0 1.607.588c.595 0 1.163-.215 1.608-.588a2.506 2.506 0 0 0 1.607.588c.594 0 1.162-.215 1.607-.588a2.506 2.506 0 0 0 1.607.588c.594 0 1.162-.215 1.607-.588.215.18.459.323.72.423l-.96 1.984h-2.267a.644.644 0 1 0 0 1.289h5.328v1.464Z" />
    </g>
    <defs>
      <clipPath id="aea"><path fill="#fff" d="M0 0h44v44H0z" /></clipPath>
    </defs></svg
  ><svg
    fill="none"
    viewBox="0 0 33 34"
    id="delivery-icon"
    xmlns="http://www.w3.org/2000/svg">
    <path
      d="m5.75 25.544.36.856a3.89 3.89 0 0 1 .789-.23l-.168-.912c-.336.06-.665.157-.98.286Z"
      fill="url(#afa)" />
    <path
      d="m3.288 27.844.844.404a3.813 3.813 0 0 1 1.289-1.48l-.53-.764a4.745 4.745 0 0 0-1.603 1.84Z"
      fill="url(#afb)" />
    <path
      d="M29.063 27.583c0-.798-.297-1.568-.836-2.162l-.699.618c.277.305.467.678.55 1.08h-3.234a.473.473 0 0 0-.39.207l-1.736 2.573h-1.155v-1.39c0-.86.347-1.684.962-2.292a3.304 3.304 0 0 1 2.319-.95h.937c.461-.002.912.133 1.296.385l.519-.771a3.285 3.285 0 0 0-1.346-.508V22.95a.46.46 0 0 0-.137-.328.471.471 0 0 0-.332-.136c-.497 0-.973-.195-1.325-.543a1.844 1.844 0 0 1-.55-1.31V18.78h1.407a.472.472 0 0 0 .331-.136.46.46 0 0 0 .137-.327v-3.244a.46.46 0 0 0-.137-.327.472.472 0 0 0-.331-.136h-.827c-.196 0-.391.027-.58.08v-.543a.46.46 0 0 0-.102-.29l-1.534-1.895a1.605 1.605 0 0 0-.38-2.087 1.653 1.653 0 0 0-2.144.069 1.607 1.607 0 0 0-.242 2.107 1.658 1.658 0 0 0 2.075.541l1.39 1.717v.585l-2.061-.679a1.277 1.277 0 0 0-.42-.068h-3.866l-2.226-2.566A1.394 1.394 0 0 0 15 10.44v-.178l.678-.335a.467.467 0 0 0 .253-.49.46.46 0 0 0-.072-.181l-.77-1.142a.47.47 0 0 0 .38-.454c-.001-.737-.298-1.444-.825-1.965a2.832 2.832 0 0 0-1.988-.815c-.883 0-1.7.25-2.308.914a2.778 2.778 0 0 0-.713 2.142l.1.991c.042.427.25.822.578 1.103v8.749c0 .325.086.645.252.927h-.721c-.16 0-.318.026-.469.08v-6.103c0-.369-.149-.722-.412-.983a1.416 1.416 0 0 0-.994-.407H2.344c-.373 0-.73.147-.994.407s-.412.614-.413.983V16h.938v-.927h6.563v4.634H1.875v-2.78H.937v3.783a.92.92 0 0 0 .218.594.94.94 0 0 0 .552.318l4.387.788v1.087a6.695 6.695 0 0 0-1.16.38h-2.59a.472.472 0 0 0-.332.135.46.46 0 0 0-.137.328v2.199a6.523 6.523 0 0 0-.938 3.36c0 .123.05.241.138.328a.472.472 0 0 0 .331.136h2.149c.28.684.76 1.27 1.38 1.683a3.781 3.781 0 0 0 4.193 0c.619-.413 1.1-.999 1.38-1.683h7.881a2.371 2.371 0 0 0 1.734-.758l.502-.546v1.304c0 .123.05.24.137.327a.471.471 0 0 0 .332.136h.971a3.737 3.737 0 0 0 1.813 1.571 3.792 3.792 0 0 0 2.405.156 3.753 3.753 0 0 0 2.005-1.324 3.678 3.678 0 0 0 .622-3.305.462.462 0 0 0 .152-.341Zm-8.907-16.448a.69.69 0 0 1 .434-.642.71.71 0 0 1 .767.151.692.692 0 0 1-.498 1.186.708.708 0 0 1-.497-.203.692.692 0 0 1-.206-.492ZM13.45 27.583c-.459 0-.899-.181-1.224-.502a1.704 1.704 0 0 1-.507-1.21c0-.454.116-.88.423-1.23.273-.31.65-.514 1.063-.573.498-.07.954-.316 1.284-.692.33-.375.51-.856.511-1.353a.457.457 0 0 0-.137-.328 1.373 1.373 0 0 0 .056-1.062h1.273l-2.056 5.286c-.05.128-.075.263-.073.4v1.264h-.613Zm1.55-.927h2.344a.473.473 0 0 1 .448.33.458.458 0 0 1-.188.519.948.948 0 0 1-.374.078H15v-.927Zm3.638-.08a1.396 1.396 0 0 0-.427-.55 1.418 1.418 0 0 0-.641-.278l1.941-4.62a2.673 2.673 0 0 0-.251-2.536 2.72 2.72 0 0 0-.985-.883c-.396-.21-.839-.319-1.289-.319H15v-.735l.137.136a.47.47 0 0 0 .332.136h4.768a1.375 1.375 0 0 0 .177 1.266 1.401 1.401 0 0 0 1.148.587h.002c-.306.4-.47.888-.47 1.39v3.594c-.001.246-.1.481-.275.655l-2.181 2.156Zm2.924-8.723a.473.473 0 0 1-.433-.286.459.459 0 0 1 .102-.505.47.47 0 0 1 .8.328.46.46 0 0 1-.137.328.472.472 0 0 1-.331.135Zm3.282-2.316v2.316h-.938v-2.172c.178-.094.378-.144.58-.144h.358Zm-1.875 1.853a1.376 1.376 0 0 0-.595-1.135 1.415 1.415 0 0 0-1.28-.175v-.827l1.875.618v1.52Zm-6.563-2.317h3.75V16h-4.493l-2.675-2.644-.663.655 1.738 1.718v1.661H11.25v-5.56h2.128l2.672 3.082a.47.47 0 0 0 .356.161Zm-5.363-8.656c.429-.468.998-.61 1.613-.61.416 0 .82.138 1.148.39.329.25.563.603.668 1h-1.816a.471.471 0 0 0-.331.136.46.46 0 0 0-.137.328v1.1a.748.748 0 0 1-.211.517.766.766 0 0 1-1.309-.442l-.1-.99a1.812 1.812 0 0 1 .475-1.429Zm.383 4.023c.45 0 .882-.177 1.2-.492.32-.315.498-.742.499-1.187v-.637h.938c0 .091.027.18.078.257l.643.953-.463.229a.467.467 0 0 0-.258.414v.463c0 .123-.05.241-.138.328a.472.472 0 0 1-.331.136H11.25v-.473c.058.006.117.01.176.01Zm-.176 8.34v-.463h5.736c.296 0 .587.072.847.21.261.137.483.336.647.58a1.763 1.763 0 0 1 .165 1.666l-2.083 4.957h-1.348l2.098-5.394a.458.458 0 0 0-.219-.576.473.473 0 0 0-.218-.053h-4.688a.944.944 0 0 1-.662-.272.922.922 0 0 1-.275-.655Zm-1.406 1.853h3.75c.124 0 .243.049.331.136a.46.46 0 0 1-.331.79h-3.75a.472.472 0 0 1-.332-.135.46.46 0 0 1 0-.655.472.472 0 0 1 .332-.136Zm-7.969-6.486v-.463c0-.123.05-.241.137-.328a.472.472 0 0 1 .332-.136h5.625c.124 0 .243.05.331.136a.461.461 0 0 1 .137.328v.463H1.875Zm0 6.486h6.563v.927H6.604l-4.73-.85v-.077Zm1.517 4.17a6.61 6.61 0 0 0-.58.524v-.524h.58Zm3.64 6.95a2.859 2.859 0 0 1-1.405-.376 2.818 2.818 0 0 1-1.03-1.014h1.195a1.885 1.885 0 0 0 2.478 0h1.196c-.248.42-.603.77-1.03 1.014a2.859 2.859 0 0 1-1.405.376Zm12.398-2.771a1.409 1.409 0 0 1-1.04.454H1.893A5.61 5.61 0 0 1 3.3 26.17a5.724 5.724 0 0 1 3.1-1.79c.121-.027.245-.04.369-.04h3.076v-.927H7.03v-.927h6.932a1.142 1.142 0 0 1-.89.665 2.685 2.685 0 0 0-1.64.883c-.453.516-.652 1.162-.652 1.838 0 .627.227 1.234.64 1.71H7.5v.927h9.73a1.92 1.92 0 0 0 1.326-.542l2.926-2.893c.35-.348.548-.819.55-1.31V20.17c0-.287.09-.568.258-.802.168-.235.405-.412.679-.509v1.774c0 .657.236 1.292.665 1.794a2.824 2.824 0 0 0 1.678.947v.966c-.29 0-.588-.018-.878.02a4.252 4.252 0 0 0-2.367 1.014 4.17 4.17 0 0 0-1.33 2.186l-1.307 1.422Zm5.665-.936h.023l.566.56a.52.52 0 0 1 .066.655.524.524 0 0 1-.54.221.527.527 0 0 1-.27-.142l-.43-.426.585-.868Zm.218 3.707a2.855 2.855 0 0 1-2.138-.975.465.465 0 0 0 .184-.158l.406-.603c.226.328.552.575.93.705.378.131.789.139 1.171.022.383-.117.718-.352.956-.67a1.838 1.838 0 0 0 .113-2.028h1.03a2.75 2.75 0 0 1-.357 2.531c-.26.363-.603.66-1.003.864-.4.204-.843.311-1.293.312Z"
      fill="url(#afc)" />
    <path d="M3.75 16h-.938v2.78h.938V16Z" fill="url(#afd)" />
    <ellipse
      opacity=".15"
      cx="20.5"
      cy="12.572"
      rx="12.5"
      ry="12.572"
      fill="url(#afe)" />
    <defs>
      <linearGradient
        id="afa"
        x1="5.751"
        y1="25.791"
        x2="6.871"
        y2="25.796"
        gradientUnits="userSpaceOnUse">
        <stop stop-color="#47C2FF" />
        <stop offset="1" stop-color="#1CB4FF" stop-opacity=".71" />
      </linearGradient>
      <linearGradient
        id="afb"
        x1="3.288"
        y1="27.051"
        x2="5.37"
        y2="27.06"
        gradientUnits="userSpaceOnUse">
        <stop stop-color="#47C2FF" />
        <stop offset="1" stop-color="#1CB4FF" stop-opacity=".71" />
      </linearGradient>
      <linearGradient
        id="afc"
        x1=".938"
        y1="17.853"
        x2="28.388"
        y2="17.977"
        gradientUnits="userSpaceOnUse">
        <stop stop-color="#47C2FF" />
        <stop offset="1" stop-color="#1CB4FF" stop-opacity=".71" />
      </linearGradient>
      <linearGradient
        id="afd"
        x1="2.813"
        y1="17.297"
        x2="3.728"
        y2="17.298"
        gradientUnits="userSpaceOnUse">
        <stop stop-color="#47C2FF" />
        <stop offset="1" stop-color="#1CB4FF" stop-opacity=".71" />
      </linearGradient>
      <linearGradient
        id="afe"
        x1="8"
        y1="11.733"
        x2="32.401"
        y2="11.842"
        gradientUnits="userSpaceOnUse">
        <stop stop-color="#47C2FF" />
        <stop offset="1" stop-color="#63CBFE" />
      </linearGradient>
    </defs></svg
  ><svg
    fill="none"
    viewBox="0 0 22 20"
    id="email"
    xmlns="http://www.w3.org/2000/svg">
    <path
      d="m16.903 6.851-4.444 3.613c-.84.666-2.02.666-2.86 0L5.12 6.851"
      stroke="#363853"
      stroke-width="1.5"
      stroke-linecap="round"
      stroke-linejoin="round" />
    <path
      clip-rule="evenodd"
      d="M15.909 19C18.95 19.008 21 16.51 21 13.438V6.57C21 3.499 18.95 1 15.909 1H6.09C3.05 1 1 3.499 1 6.57v6.868C1 16.51 3.05 19.008 6.091 19h9.818Z"
      stroke="#363853"
      stroke-width="1.5"
      stroke-linecap="round"
      stroke-linejoin="round" /></svg
  ><svg
    fill="none"
    viewBox="0 0 39 39"
    id="facebook"
    xmlns="http://www.w3.org/2000/svg">
    <circle cx="19.5" cy="19.5" r="19.5" fill="#EEEEEF" />
    <path
      d="M16.915 29.763v-9.631h-2.547v-3.468h2.547v-2.962c0-2.328 1.505-4.465 4.971-4.465 1.404 0 2.441.134 2.441.134l-.082 3.239s-1.058-.01-2.213-.01c-1.25 0-1.45.575-1.45 1.532v2.532h3.763l-.164 3.468h-3.6v9.631h-3.666Z"
      fill="#363853" /></svg
  ><svg
    fill="none"
    viewBox="0 0 135 40"
    id="google-play-icon"
    xmlns="http://www.w3.org/2000/svg">
    <rect x=".5" y=".5" width="134" height="39" rx="4.5" fill="#000" />
    <path
      d="M68.136 21.751c-2.352 0-4.269 1.79-4.269 4.253 0 2.45 1.917 4.253 4.269 4.253 2.353 0 4.27-1.804 4.27-4.253-.001-2.464-1.918-4.253-4.27-4.253Zm0 6.832c-1.289 0-2.4-1.063-2.4-2.578 0-1.53 1.112-2.578 2.4-2.578 1.289 0 2.4 1.047 2.4 2.578 0 1.514-1.111 2.578-2.4 2.578Zm-9.314-6.832c-2.352 0-4.269 1.79-4.269 4.253 0 2.45 1.917 4.253 4.269 4.253 2.353 0 4.27-1.804 4.27-4.253 0-2.464-1.917-4.253-4.27-4.253Zm0 6.832c-1.289 0-2.4-1.063-2.4-2.578 0-1.53 1.112-2.578 2.4-2.578 1.289 0 2.4 1.047 2.4 2.578.001 1.514-1.111 2.578-2.4 2.578Zm-11.078-5.526v1.804h4.318c-.129 1.015-.467 1.756-.983 2.271-.628.628-1.611 1.321-3.335 1.321-2.658 0-4.736-2.143-4.736-4.8 0-2.659 2.078-4.802 4.736-4.802 1.434 0 2.481.564 3.254 1.29l1.273-1.274c-1.08-1.03-2.513-1.82-4.527-1.82-3.641 0-6.702 2.964-6.702 6.605 0 3.641 3.061 6.605 6.702 6.605 1.965 0 3.448-.645 4.607-1.853 1.192-1.192 1.563-2.868 1.563-4.22 0-.419-.032-.806-.097-1.128h-6.073v.001Zm45.308 1.401c-.354-.95-1.434-2.707-3.641-2.707-2.191 0-4.012 1.724-4.012 4.253 0 2.384 1.805 4.253 4.221 4.253 1.949 0 3.077-1.192 3.545-1.885l-1.45-.967c-.483.71-1.144 1.176-2.095 1.176-.95 0-1.627-.435-2.062-1.289l5.687-2.352-.193-.482Zm-5.8 1.418c-.048-1.644 1.273-2.48 2.224-2.48.741 0 1.369.37 1.579.901l-3.803 1.58ZM82.629 30h1.868V17.5h-1.868V30Zm-3.062-7.298h-.064c-.419-.5-1.225-.95-2.239-.95-2.127 0-4.076 1.868-4.076 4.27 0 2.383 1.949 4.236 4.076 4.236 1.015 0 1.82-.45 2.239-.966h.064v.612c0 1.627-.87 2.497-2.271 2.497-1.144 0-1.853-.82-2.143-1.514l-1.627.677c.467 1.127 1.707 2.513 3.77 2.513 2.191 0 4.044-1.289 4.044-4.43V22.01h-1.772v.692h-.001Zm-2.142 5.881c-1.289 0-2.368-1.08-2.368-2.562 0-1.499 1.079-2.594 2.368-2.594 1.272 0 2.271 1.095 2.271 2.594 0 1.482-.999 2.562-2.271 2.562ZM101.806 17.5h-4.471V30H99.2v-4.736h2.605c2.068 0 4.102-1.497 4.102-3.882s-2.033-3.883-4.101-3.883Zm.048 6.025H99.2V19.24h2.654c1.395 0 2.187 1.155 2.187 2.143 0 .968-.792 2.142-2.187 2.142Zm11.532-1.795c-1.351 0-2.75.595-3.329 1.914l1.656.691c.354-.69 1.014-.917 1.705-.917.965 0 1.946.58 1.962 1.608v.13c-.338-.194-1.062-.483-1.946-.483-1.785 0-3.603.981-3.603 2.814 0 1.673 1.464 2.75 3.104 2.75 1.254 0 1.946-.563 2.38-1.223h.064v.965h1.802v-4.793c.001-2.218-1.657-3.456-3.795-3.456Zm-.226 6.851c-.61 0-1.463-.306-1.463-1.062 0-.965 1.062-1.335 1.979-1.335.819 0 1.206.177 1.704.418a2.262 2.262 0 0 1-2.22 1.98Zm10.583-6.578-2.139 5.42h-.064l-2.22-5.42h-2.01l3.329 7.575-1.898 4.214h1.946l5.131-11.789h-2.075ZM106.937 30h1.865V17.5h-1.865V30ZM47.418 10.243c0 .838-.248 1.505-.745 2.003-.564.592-1.3.888-2.204.888-.866 0-1.603-.3-2.208-.9-.606-.601-.909-1.345-.909-2.233 0-.89.303-1.633.91-2.233.604-.601 1.341-.901 2.207-.901.43 0 .841.084 1.231.25.391.169.704.392.938.67l-.527.529c-.397-.475-.944-.712-1.643-.712-.632 0-1.178.222-1.639.666-.461.444-.69 1.02-.69 1.73 0 .709.229 1.286.69 1.73a2.282 2.282 0 0 0 1.639.666c.67 0 1.23-.223 1.676-.67.29-.291.458-.696.503-1.215h-2.179V9.79h2.907c.03.157.043.308.043.453ZM52.028 7.737h-2.732v1.902h2.464v.721h-2.464v1.902h2.732V13h-3.503V7h3.503v.737ZM55.279 13h-.771V7.737h-1.676V7h4.123v.737h-1.676V13ZM59.938 13V7h.771v6h-.771ZM64.128 13h-.77V7.737H61.68V7h4.123v.737h-1.676V13ZM73.609 12.225c-.59.606-1.323.909-2.2.909-.877 0-1.61-.303-2.2-.909-.59-.606-.883-1.348-.883-2.225s.294-1.619.884-2.225c.589-.606 1.322-.91 2.199-.91.872 0 1.604.305 2.196.914.592.609.888 1.349.888 2.221 0 .877-.295 1.619-.884 2.225Zm-3.83-.503a2.2 2.2 0 0 0 1.63.674c.643 0 1.187-.225 1.63-.674.444-.45.667-1.024.667-1.722s-.223-1.272-.667-1.722a2.199 2.199 0 0 0-1.63-.674c-.643 0-1.186.225-1.63.674-.443.45-.666 1.024-.666 1.722s.223 1.272.666 1.722ZM75.575 13V7h.938l2.916 4.667h.033l-.033-1.156V7h.77v6h-.804l-3.051-4.894h-.033l.033 1.156V13h-.77Z"
      fill="#fff" />
    <path
      d="M47.418 10.243c0 .838-.248 1.505-.745 2.003-.564.592-1.3.888-2.204.888-.866 0-1.603-.3-2.208-.9-.606-.601-.909-1.345-.909-2.233 0-.89.303-1.633.91-2.233.604-.601 1.341-.901 2.207-.901.43 0 .841.084 1.231.25.391.169.704.392.938.67l-.527.529c-.397-.475-.944-.712-1.643-.712-.632 0-1.178.222-1.639.666-.461.444-.69 1.02-.69 1.73 0 .709.229 1.286.69 1.73a2.282 2.282 0 0 0 1.639.666c.67 0 1.23-.223 1.676-.67.29-.291.458-.696.503-1.215h-2.179V9.79h2.907c.03.157.043.308.043.453ZM52.028 7.737h-2.732v1.902h2.464v.721h-2.464v1.902h2.732V13h-3.503V7h3.503v.737ZM55.279 13h-.771V7.737h-1.676V7h4.123v.737h-1.676V13ZM59.938 13V7h.771v6h-.771ZM64.128 13h-.77V7.737H61.68V7h4.123v.737h-1.676V13ZM73.609 12.225c-.59.606-1.323.909-2.2.909-.877 0-1.61-.303-2.2-.909-.59-.606-.883-1.348-.883-2.225s.294-1.619.884-2.225c.589-.606 1.322-.91 2.199-.91.872 0 1.604.305 2.196.914.592.609.888 1.349.888 2.221 0 .877-.295 1.619-.884 2.225Zm-3.83-.503a2.2 2.2 0 0 0 1.63.674c.643 0 1.187-.225 1.63-.674.444-.45.667-1.024.667-1.722s-.223-1.272-.667-1.722a2.199 2.199 0 0 0-1.63-.674c-.643 0-1.186.225-1.63.674-.443.45-.666 1.024-.666 1.722s.223 1.272.666 1.722ZM75.575 13V7h.938l2.916 4.667h.033l-.033-1.156V7h.77v6h-.804l-3.051-4.894h-.033l.033 1.156V13h-.77Z"
      stroke="#fff"
      stroke-width=".2"
      stroke-miterlimit="10" />
    <g filter="url(#aia)">
      <path
        d="M10.436 7.538c-.291.308-.463.786-.463 1.405v22.116c0 .62.172 1.097.463 1.405l.074.072 12.389-12.389v-.292L10.51 7.465l-.074.073Z"
        fill="url(#aib)" />
      <path
        d="m27.028 24.278-4.129-4.131v-.292l4.13-4.13.093.053 4.893 2.78c1.397.794 1.397 2.093 0 2.888l-4.893 2.78-.094.052Z"
        fill="url(#aic)" />
      <g filter="url(#aid)">
        <path
          d="m27.122 24.225-4.224-4.224-12.462 12.463c.46.488 1.221.548 2.078.062l14.608-8.301Z"
          fill="url(#aie)" />
      </g>
      <path
        d="m27.122 15.777-14.608-8.3c-.857-.487-1.618-.426-2.078.062l12.463 12.463 4.223-4.225Z"
        fill="url(#aif)" />
    </g>
    <rect x=".5" y=".5" width="134" height="39" rx="4.5" stroke="#A6A6A6" />
    <defs>
      <linearGradient
        id="aib"
        x1="21.801"
        y1="8.709"
        x2="5.019"
        y2="25.491"
        gradientUnits="userSpaceOnUse">
        <stop stop-color="#00A0FF" />
        <stop offset=".007" stop-color="#00A1FF" />
        <stop offset=".26" stop-color="#00BEFF" />
        <stop offset=".512" stop-color="#00D2FF" />
        <stop offset=".76" stop-color="#00DFFF" />
        <stop offset="1" stop-color="#00E3FF" />
      </linearGradient>
      <linearGradient
        id="aic"
        x1="33.834"
        y1="20.001"
        x2="9.638"
        y2="20.001"
        gradientUnits="userSpaceOnUse">
        <stop stop-color="#FFE000" />
        <stop offset=".409" stop-color="#FFBD00" />
        <stop offset=".775" stop-color="orange" />
        <stop offset="1" stop-color="#FF9C00" />
      </linearGradient>
      <linearGradient
        id="aie"
        x1="24.828"
        y1="22.295"
        x2="2.07"
        y2="45.053"
        gradientUnits="userSpaceOnUse">
        <stop stop-color="#FF3A44" />
        <stop offset="1" stop-color="#C31162" />
      </linearGradient>
      <linearGradient
        id="aif"
        x1="7.297"
        y1=".177"
        x2="17.46"
        y2="10.339"
        gradientUnits="userSpaceOnUse">
        <stop stop-color="#32A071" />
        <stop offset=".069" stop-color="#2DA771" />
        <stop offset=".476" stop-color="#15CF74" />
        <stop offset=".801" stop-color="#06E775" />
        <stop offset="1" stop-color="#00F076" />
      </linearGradient>
      <filter
        id="aia"
        x="9.973"
        y="7.141"
        width="23.09"
        height="25.721"
        filterUnits="userSpaceOnUse"
        color-interpolation-filters="sRGB">
        <feFlood flood-opacity="0" result="BackgroundImageFix" />
        <feBlend in="SourceGraphic" in2="BackgroundImageFix" result="shape" />
        <feColorMatrix
          in="SourceAlpha"
          values="0 0 0 0 0 0 0 0 0 0 0 0 0 0 0 0 0 0 127 0"
          result="hardAlpha" />
        <feOffset dy="-.15" />
        <feComposite in2="hardAlpha" operator="arithmetic" k2="-1" k3="1" />
        <feColorMatrix values="0 0 0 0 0 0 0 0 0 0 0 0 0 0 0 0 0 0 0.12 0" />
        <feBlend in2="shape" result="effect1_innerShadow_0_545" />
        <feColorMatrix
          in="SourceAlpha"
          values="0 0 0 0 0 0 0 0 0 0 0 0 0 0 0 0 0 0 127 0"
          result="hardAlpha" />
        <feOffset dy=".15" />
        <feComposite in2="hardAlpha" operator="arithmetic" k2="-1" k3="1" />
        <feColorMatrix values="0 0 0 0 1 0 0 0 0 1 0 0 0 0 1 0 0 0 0.25 0" />
        <feBlend
          in2="effect1_innerShadow_0_545"
          result="effect2_innerShadow_0_545" />
      </filter>
      <filter
        id="aid"
        x="10.436"
        y="20.001"
        width="16.686"
        height="12.861"
        filterUnits="userSpaceOnUse"
        color-interpolation-filters="sRGB">
        <feFlood flood-opacity="0" result="BackgroundImageFix" />
        <feBlend in="SourceGraphic" in2="BackgroundImageFix" result="shape" />
        <feColorMatrix
          in="SourceAlpha"
          values="0 0 0 0 0 0 0 0 0 0 0 0 0 0 0 0 0 0 127 0"
          result="hardAlpha" />
        <feOffset dy="-.15" />
        <feComposite in2="hardAlpha" operator="arithmetic" k2="-1" k3="1" />
        <feColorMatrix values="0 0 0 0 0 0 0 0 0 0 0 0 0 0 0 0 0 0 0.08 0" />
        <feBlend in2="shape" result="effect1_innerShadow_0_545" />
      </filter>
    </defs></svg
  ><svg
    fill="none"
    viewBox="0 0 39 39"
    id="instagram"
    xmlns="http://www.w3.org/2000/svg">
    <circle cx="19.5" cy="19.5" r="19.5" fill="#EEEEEF" />
    <path
      d="M18.985 16.762a3.258 3.258 0 0 0-3.252 3.251 3.258 3.258 0 0 0 3.252 3.252 3.258 3.258 0 0 0 3.25-3.252 3.258 3.258 0 0 0-3.25-3.251Zm9.751 3.251c0-1.346.012-2.68-.063-4.024-.076-1.562-.432-2.947-1.573-4.088-1.144-1.144-2.527-1.498-4.088-1.574-1.347-.075-2.681-.063-4.025-.063-1.346 0-2.68-.012-4.025.063-1.56.076-2.946.432-4.088 1.574-1.144 1.143-1.497 2.527-1.573 4.088-.076 1.346-.063 2.68-.063 4.024 0 1.344-.013 2.68.063 4.025.076 1.56.432 2.946 1.573 4.088 1.144 1.144 2.527 1.497 4.088 1.573 1.347.076 2.68.063 4.025.063 1.346 0 2.68.013 4.025-.063 1.56-.076 2.946-.432 4.087-1.573 1.145-1.144 1.498-2.527 1.574-4.088.078-1.344.063-2.678.063-4.025Zm-9.752 5.003a4.996 4.996 0 0 1-5.002-5.003 4.996 4.996 0 0 1 5.003-5.003 4.996 4.996 0 0 1 5.002 5.003 4.996 4.996 0 0 1-5.002 5.003Zm5.208-9.042a1.167 1.167 0 0 1-1.168-1.168c0-.647.522-1.169 1.168-1.169a1.167 1.167 0 0 1 .827 1.995 1.166 1.166 0 0 1-.827.342Z"
      fill="#363853" /></svg
  ><svg
    fill="none"
    viewBox="0 0 18 20"
    id="location"
    xmlns="http://www.w3.org/2000/svg">
    <g
      clip-rule="evenodd"
      stroke="#363853"
      stroke-width="1.5"
      stroke-linecap="round"
      stroke-linejoin="round">
      <path d="M11.5 8.5a2.5 2.5 0 1 0-5 0 2.5 2.5 0 0 0 5 0Z" />
      <path
        d="M9 19C7.8 19 1.5 13.898 1.5 8.563 1.5 4.387 4.857 1 9 1c4.142 0 7.5 3.387 7.5 7.563C16.5 13.898 10.198 19 9 19Z" />
    </g></svg
  ><svg
    fill="none"
    viewBox="0 0 102 25"
    id="logo"
    xmlns="http://www.w3.org/2000/svg">
    <path
      d="M1.366 24.292a.764.764 0 0 1-.561-.231.764.764 0 0 1-.231-.561V2.017c0-.242.077-.44.231-.594a.764.764 0 0 1 .561-.231h14.52c.242 0 .44.077.594.231a.804.804 0 0 1 .231.594v2.178c0 .22-.077.407-.231.561a.804.804 0 0 1-.594.231H5.029v5.841H15.16c.242 0 .44.077.594.231.154.132.231.319.231.561v2.046c0 .242-.077.44-.231.594a.88.88 0 0 1-.594.198H5.029v6.039H16.15c.242 0 .44.077.594.231a.804.804 0 0 1 .231.594V23.5c0 .22-.077.407-.231.561a.804.804 0 0 1-.594.231H1.366Z"
      fill="#FF6838" />
    <path
      d="M23.544 24.292a.764.764 0 0 1-.56-.231.764.764 0 0 1-.232-.561V2.017c0-.242.077-.44.231-.594a.764.764 0 0 1 .561-.231h14.322c.242 0 .44.077.594.231a.804.804 0 0 1 .231.594v2.31c0 .242-.077.44-.23.594a.88.88 0 0 1-.595.198H27.273v6.27h9.933c.242 0 .44.077.594.231a.804.804 0 0 1 .231.594v2.31c0 .22-.077.407-.23.561a.804.804 0 0 1-.595.231h-9.933V23.5c0 .22-.077.407-.23.561a.804.804 0 0 1-.595.231h-2.904Zm27.55.33c-1.76 0-3.246-.308-4.456-.924-1.188-.616-2.1-1.485-2.739-2.607-.616-1.122-.968-2.431-1.056-3.927-.022-.396-.033-.88-.033-1.452s.011-1.056.033-1.452c.088-1.518.451-2.827 1.09-3.927.66-1.122 1.583-1.991 2.771-2.607 1.21-.616 2.673-.924 4.39-.924 1.715 0 3.167.308 4.355.924 1.21.616 2.134 1.485 2.772 2.607.66 1.1 1.034 2.409 1.122 3.927.022.396.033.88.033 1.452s-.01 1.056-.033 1.452c-.088 1.496-.45 2.805-1.089 3.927-.616 1.122-1.529 1.991-2.739 2.607-1.188.616-2.662.924-4.422.924Zm0-3.267c1.165 0 2.067-.363 2.705-1.089.638-.748.99-1.837 1.056-3.267.022-.33.033-.759.033-1.287 0-.528-.01-.957-.033-1.287-.066-1.408-.418-2.486-1.056-3.234-.638-.748-1.54-1.122-2.706-1.122s-2.068.374-2.706 1.122c-.638.748-.99 1.826-1.056 3.234-.022.33-.033.759-.033 1.287 0 .528.011.957.033 1.287.066 1.43.418 2.519 1.056 3.267.638.726 1.54 1.089 2.706 1.089Zm21.179 3.267c-1.76 0-3.245-.308-4.455-.924-1.188-.616-2.101-1.485-2.74-2.607-.615-1.122-.967-2.431-1.055-3.927-.022-.396-.033-.88-.033-1.452s.01-1.056.033-1.452c.088-1.518.45-2.827 1.089-3.927.66-1.122 1.584-1.991 2.772-2.607 1.21-.616 2.673-.924 4.389-.924 1.716 0 3.168.308 4.356.924 1.21.616 2.134 1.485 2.772 2.607.66 1.1 1.034 2.409 1.122 3.927.022.396.033.88.033 1.452s-.011 1.056-.033 1.452c-.088 1.496-.451 2.805-1.09 3.927-.615 1.122-1.528 1.991-2.738 2.607-1.188.616-2.662.924-4.422.924Zm0-3.267c1.166 0 2.068-.363 2.706-1.089.638-.748.99-1.837 1.056-3.267.022-.33.033-.759.033-1.287 0-.528-.011-.957-.033-1.287-.066-1.408-.418-2.486-1.056-3.234-.638-.748-1.54-1.122-2.706-1.122s-2.068.374-2.706 1.122c-.638.748-.99 1.826-1.056 3.234-.022.33-.033.759-.033 1.287 0 .528.01.957.033 1.287.066 1.43.418 2.519 1.056 3.267.638.726 1.54 1.089 2.706 1.089Zm19.958 3.267c-1.144 0-2.156-.187-3.036-.561a5.91 5.91 0 0 1-2.145-1.65c-.572-.704-1.012-1.529-1.32-2.475-.308-.968-.484-2.024-.528-3.168a19.265 19.265 0 0 1-.033-1.056c0-.33.011-.693.033-1.089.044-1.1.209-2.123.495-3.069.308-.946.748-1.771 1.32-2.475a6.056 6.056 0 0 1 2.178-1.683c.88-.396 1.892-.594 3.036-.594 1.188 0 2.189.209 3.003.627.836.396 1.529.913 2.079 1.551V1.654c0-.22.066-.407.198-.561a.804.804 0 0 1 .594-.231h2.805c.22 0 .407.077.561.231a.764.764 0 0 1 .231.561V23.5c0 .22-.077.407-.231.561a.764.764 0 0 1-.561.231h-2.607a.804.804 0 0 1-.594-.231.833.833 0 0 1-.198-.561v-1.221c-.55.682-1.254 1.243-2.112 1.683-.836.44-1.892.66-3.168.66Zm1.221-3.531c.924 0 1.661-.209 2.211-.627.55-.418.957-.946 1.221-1.584.264-.66.407-1.331.429-2.013.022-.396.033-.814.033-1.254 0-.462-.011-.891-.033-1.287a4.647 4.647 0 0 0-.462-1.881 3.825 3.825 0 0 0-1.254-1.518c-.55-.396-1.265-.594-2.145-.594-.924 0-1.661.209-2.211.627a3.385 3.385 0 0 0-1.155 1.584 7.508 7.508 0 0 0-.429 2.178c-.022.66-.022 1.32 0 1.98.044.792.187 1.518.429 2.178.242.66.627 1.199 1.155 1.617.55.396 1.287.594 2.211.594Z"
      fill="#363853" /></svg
  ><svg
    fill="none"
    viewBox="0 0 22 22"
    id="phone"
    xmlns="http://www.w3.org/2000/svg">
    <path
      d="M13.353 1.5a7.97 7.97 0 0 1 7.04 7.032M13.353 5.043a4.426 4.426 0 0 1 3.5 3.5"
      stroke="#363853"
      stroke-width="1.5"
      stroke-linecap="round"
      stroke-linejoin="round" />
    <path
      clip-rule="evenodd"
      d="M10.031 11.472c3.99 3.988 4.894-.625 7.434 1.913 2.449 2.448 3.857 2.938.754 6.04-.389.312-2.858 4.07-11.535-4.605-8.677-8.676-4.922-11.148-4.61-11.536 3.11-3.11 3.593-1.695 6.041.753 2.54 2.54-2.072 3.447 1.916 7.435Z"
      stroke="#363853"
      stroke-width="1.5"
      stroke-linecap="round"
      stroke-linejoin="round" /></svg
  ><svg
    fill="none"
    viewBox="0 0 39 39"
    id="pinterest"
    xmlns="http://www.w3.org/2000/svg">
    <circle cx="19.5" cy="19.5" r="19.5" fill="#EEEEEF" />
    <path
      d="M11.29 16.6c0-.888.155-1.726.46-2.509a6.421 6.421 0 0 1 1.28-2.055 8.685 8.685 0 0 1 1.874-1.516c.71-.43 1.48-.754 2.284-.963a9.775 9.775 0 0 1 2.492-.32c1.3 0 2.509.274 3.63.822a6.868 6.868 0 0 1 2.727 2.389c.7 1.043 1.049 2.224 1.049 3.54 0 .79-.078 1.562-.237 2.317a9.442 9.442 0 0 1-.736 2.182 7.533 7.533 0 0 1-1.235 1.844 5.388 5.388 0 0 1-1.788 1.271 5.66 5.66 0 0 1-2.333.476 3.823 3.823 0 0 1-1.664-.395c-.55-.262-.945-.623-1.182-1.085-.083.32-.197.784-.349 1.39-.146.604-.244.994-.287 1.171-.046.176-.13.469-.254.875-.083.3-.19.594-.32.877l-.393.769c-.17.33-.359.65-.567.956-.207.299-.463.656-.767 1.066l-.17.06-.113-.122c-.122-1.293-.185-2.066-.185-2.322 0-.756.09-1.605.268-2.547.175-.94.45-2.124.822-3.546.37-1.421.582-2.257.64-2.505-.262-.533-.394-1.228-.394-2.084 0-.683.213-1.323.641-1.925.429-.6.97-.9 1.628-.9.503 0 .893.166 1.172.5.281.334.418.753.418 1.265 0 .543-.18 1.33-.543 2.357-.363 1.029-.543 1.797-.543 2.306 0 .517.185.95.554 1.288.365.34.847.523 1.345.512.452 0 .87-.102 1.26-.309.382-.2.714-.486.968-.836a6.985 6.985 0 0 0 1.16-2.538c.11-.481.194-.939.246-1.369.056-.432.08-.84.08-1.228 0-1.423-.452-2.531-1.35-3.325-.901-.794-2.076-1.189-3.522-1.189-1.643 0-3.018.532-4.119 1.598-1.101 1.063-1.656 2.415-1.656 4.054 0 .362.055.71.159 1.049.101.336.212.604.332.803.118.195.23.385.332.56.102.176.156.302.156.377 0 .23-.06.53-.183.901-.126.371-.276.556-.456.556-.017 0-.088-.013-.21-.039a2.52 2.52 0 0 1-1.118-.69 3.616 3.616 0 0 1-.751-1.166 7.962 7.962 0 0 1-.402-1.333 5.568 5.568 0 0 1-.15-1.315Z"
      fill="#363853" /></svg
  ><svg
    fill="none"
    viewBox="0 0 63 63"
    id="pizza-icon"
    xmlns="http://www.w3.org/2000/svg">
    <g clip-path="url(#aoa)" fill="#363853">
      <path
        d="M61.87 31.117a.859.859 0 0 1-.491.771l-34.24 16.24a4.698 4.698 0 0 1-2.769 3.25 4.706 4.706 0 0 1-6.142-2.545 46.08 46.08 0 0 1-3.525-17.721 46.078 46.078 0 0 1 3.525-17.721 4.675 4.675 0 0 1 1.015-1.52 4.708 4.708 0 0 1 5.127-1.024 4.687 4.687 0 0 1 2.563 2.6L61.39 30.34a.86.86 0 0 1 .481.777ZM31.034 44.38l3.629-1.72a2.186 2.186 0 0 0-2.475-2.102 2.176 2.176 0 0 0-1.452.839 2.176 2.176 0 0 0-.434 1.619c.07.534.329 1.014.732 1.364Zm-7.322-31.944a2.985 2.985 0 0 0-3.896 1.614c-4.558 11.003-4.558 23.123 0 34.126a2.963 2.963 0 0 0 1.614 1.614 2.963 2.963 0 0 0 2.282 0 2.963 2.963 0 0 0 1.614-1.614 2.963 2.963 0 0 0 0-2.282 38.431 38.431 0 0 1-2.94-14.781c0-5.098.99-10.071 2.94-14.781a2.985 2.985 0 0 0-1.614-3.896Zm23.826 13.028a2.176 2.176 0 0 0-.587 1.796 2.193 2.193 0 0 0 3.91 1.047c.227-.295.37-.641.426-1.005l-3.748-1.837Zm5.334 2.616a3.913 3.913 0 0 1-6.13 1.996 3.883 3.883 0 0 1-1.495-2.591 3.88 3.88 0 0 1 .707-2.798l-4.74-2.323-.323 2.454a.86.86 0 0 1-1.704-.224l.4-3.029L27.26 15.52a4.684 4.684 0 0 1-.346 1.468c-3.772 9.108-3.772 19.14 0 28.247.132.317.224.64.283.964l2.207-1.047a3.885 3.885 0 0 1-.806-1.913 3.883 3.883 0 0 1 1.117-3.28 3.88 3.88 0 0 1 2.248-1.106 3.884 3.884 0 0 1 2.89.775 3.902 3.902 0 0 1 1.437 2.258l10.247-4.86-.405-.978a.86.86 0 1 1 1.588-.657l.372.897 10.94-5.189-6.16-3.02Z" />
      <path
        d="M21.373 39.36a.859.859 0 1 1 0 0ZM21.959 41.794c.446 1.63 1 3.25 1.647 4.812a.86.86 0 0 1-1.588.657 42.385 42.385 0 0 1-1.717-5.015.86.86 0 1 1 1.658-.454ZM42.351 35.432a3.918 3.918 0 0 1-5.481.722 3.914 3.914 0 0 1-.382-5.869 3.918 3.918 0 0 1 5.142-.334 3.914 3.914 0 0 1 .721 5.481Zm-1.767-4.117a2.195 2.195 0 0 0-3.072.404 2.193 2.193 0 0 0 .405 3.071 2.195 2.195 0 0 0 3.07-.404 2.193 2.193 0 0 0-.404-3.071ZM34.635 28.032a3.918 3.918 0 0 1-5.481.722 3.883 3.883 0 0 1-1.497-2.592 3.884 3.884 0 0 1 1.114-3.277 3.918 3.918 0 0 1 5.142-.334 3.914 3.914 0 0 1 .722 5.48Zm-1.768-4.118a2.195 2.195 0 0 0-3.072.404 2.177 2.177 0 0 0-.434 1.62c.077.58.374 1.095.839 1.452a2.195 2.195 0 0 0 3.071-.405 2.193 2.193 0 0 0-.404-3.071ZM33.144 34.557l-1.622 2.113a.86.86 0 1 1-1.363-1.046l1.622-2.113a.86.86 0 0 1 1.364 1.046ZM27.713 31.02l1.088 1.418a.86.86 0 1 1-1.363 1.046l-1.089-1.418a.86.86 0 0 1 1.364-1.046Z" />
    </g>
    <defs>
      <clipPath id="aoa">
        <path
          fill="#fff"
          transform="scale(1 -1) rotate(45 90.669 6.444)"
          d="M0 0h44v44H0z" />
      </clipPath>
    </defs></svg
  ><svg
    fill="none"
    viewBox="0 0 34 34"
    id="roundarrow-left"
    xmlns="http://www.w3.org/2000/svg">
    <g clip-path="url(#apa)" fill="#D1D2DC">
      <path
        d="M0 17C0 7.626 7.626 0 17 0c9.374 0 17 7.626 17 17 0 9.374-7.627 17-17 17-9.373 0-17-7.626-17-17Zm31.366 0c0-7.92-6.444-14.366-14.366-14.366S2.634 9.079 2.634 17c0 7.922 6.444 14.366 14.366 14.366S31.366 24.921 31.366 17Z" />
      <path
        d="m18.817 24.519-6.584-6.584a1.316 1.316 0 0 1 0-1.857l6.584-6.584a1.316 1.316 0 0 1 1.857 1.857L15.024 17l5.65 5.662c.51.514.51 1.343 0 1.857a1.316 1.316 0 0 1-1.857 0Z" />
    </g>
    <defs>
      <clipPath id="apa">
        <path fill="#fff" transform="matrix(0 1 1 0 0 0)" d="M0 0h34v34H0z" />
      </clipPath>
    </defs></svg
  ><svg
    fill="none"
    viewBox="0 0 34 34"
    id="roundarrow-right"
    xmlns="http://www.w3.org/2000/svg">
    <path
      d="M34 17c0-9.374-7.626-17-17-17C7.626 0 0 7.626 0 17c0 9.374 7.627 17 17 17 9.373 0 17-7.626 17-17ZM2.634 17C2.634 9.08 9.078 2.634 17 2.634S31.366 9.079 31.366 17c0 7.922-6.444 14.366-14.366 14.366S2.634 24.921 2.634 17Z"
      fill="#FF7A50" />
    <path
      d="m15.183 24.519 6.584-6.584c.51-.514.51-1.343 0-1.857l-6.584-6.584a1.316 1.316 0 0 0-1.857 1.857L18.976 17l-5.65 5.662a1.316 1.316 0 0 0 0 1.857 1.316 1.316 0 0 0 1.857 0Z"
      fill="#FF7A50" /></svg
  ><svg
    fill="none"
    viewBox="0 0 44 44"
    id="sandwich-icon"
    xmlns="http://www.w3.org/2000/svg">
    <g clip-path="url(#ara)" fill="#363853">
      <path
        d="M41.8 6.6h-1.467V5.133a2.2 2.2 0 0 0-2.2-2.2h-1.747L35.326.811A1.457 1.457 0 0 0 34.012 0H33c-.81 0-1.467.657-1.467 1.467v1.466h-8.066a2.2 2.2 0 0 0-2.2 2.2V6.6H19.8a2.2 2.2 0 0 0-2.2 2.2v1.467c0 .81.657 1.466 1.467 1.466h.077l.858 7.577-3.533-.83a11.096 11.096 0 0 0-.576-.813L14.646 12.3a.733.733 0 0 0-.713-.568H9.72C7.73 9.981 5.382 9.19 3.61 9.711L2.532 8.537a1.448 1.448 0 0 0-1.605-.366c-.56.216-.93.755-.928 1.355v32.289A2.188 2.188 0 0 0 2.185 44h35.948c.373 0 .686-.28.728-.65l3.593-31.617h.08c.81 0 1.466-.657 1.466-1.466V8.8a2.2 2.2 0 0 0-2.2-2.2ZM33 1.467h1.013l.734 1.466H33V1.467ZM22.733 5.133c0-.405.329-.733.734-.733h14.666c.405 0 .734.328.734.733V6.6H22.733V5.133Zm-2.053 15.84.046.009.593.14.397 4.162a6.758 6.758 0 0 0-3.94-1.242 6.28 6.28 0 0 0-.411-3.848l3.315.78Zm1.433 6.487.01.008c.265.245.517.505.755.778a8.685 8.685 0 0 1 1.876 3.388c.124.437.188.89.19 1.344l-6.849-7.47c1.523.17 2.942.86 4.018 1.952Zm-7.728-9.32v-.002c1.583 1.819 2.32 4.003 1.97 5.472l-7.463-8.137c1.505-.336 3.795.721 5.493 2.667Zm-1.038-4.94.586 2.497a9.342 9.342 0 0 0-1.913-1.154 11.558 11.558 0 0 0-.928-1.343h2.255Zm-3.687.546h.003c.061.07.11.146.17.22a3.99 3.99 0 0 0-2.012.338l-3.015-3.288c1.474.021 3.398 1.058 4.854 2.73Zm21.077 28.356a.716.716 0 0 1-.656.431H2.185a.719.719 0 0 1-.718-.718L1.453 9.533l14.72 16.048v.004l8.644 9.424.01.011 4.741 5.172c.017.022.034.044.053.065l.984 1.072a.716.716 0 0 1 .132.773Zm-4.54-7.757c.135-.438.203-.894.203-1.352.385.325.744.68 1.074 1.061.41.468.773.975 1.086 1.513.428.72.73 1.507.895 2.329l-3.257-3.551Zm11.281 8.188h-5.342c.275-.76.1-1.61-.45-2.2l-.74-.806a6.691 6.691 0 0 0-.571-3.594h7.854l-.75 6.6Zm.917-8.066h-8.8a11.218 11.218 0 0 0-1.009-1.375 10.69 10.69 0 0 0-2.512-2.136 10.145 10.145 0 0 0-2.09-3.676c-.22-.25-.44-.482-.671-.706l-.58-6.11a.733.733 0 0 0-.56-.644l-.65-.154-.154-1.333h18.86l-1.834 16.134Zm2-17.6H21.203l-.58-5.134h20.357l-.583 5.134Zm2.138-6.6H19.067V8.8c0-.405.328-.733.733-.733h22c.405 0 .733.328.733.733v1.467Z" />
      <path
        d="M31.1 32.267c.042 0 .083-.006.124-.008.011 0 .023.008.034.008a.704.704 0 0 0 .109-.016 3.966 3.966 0 0 0 2.899-1.568 5.1 5.1 0 0 0 .714-4.474c-.102-.38-.195-.753-.285-1.113-.572-2.293-1.119-4.456-3.435-4.553-.024 0-.046-.004-.07-.004-.023 0-.057-.006-.09-.006-2.591 0-4.7 2.632-4.7 5.867s2.109 5.867 4.7 5.867Zm.568-10.157c.758.298 1.092 1.291 1.604 3.341.092.367.187.751.293 1.14a3.656 3.656 0 0 1-.464 3.2 2.592 2.592 0 0 1-.876.734 10.656 10.656 0 0 0-.733-3.68c-.073-.23-.147-.45-.211-.66-.427-1.389.073-3.188.387-4.075Zm-1.576.11a8.049 8.049 0 0 0-.212 4.393c.068.22.143.448.22.685.367 1.12.807 2.472.627 3.468-1.607-.25-2.86-2.112-2.86-4.366 0-1.947.935-3.6 2.225-4.18ZM3.881 38.563l-.518.518A.733.733 0 1 0 4.4 40.118l.518-.518a.733.733 0 0 0-1.037-1.037ZM10.893 33.626a.734.734 0 0 0-1.038-1.037l-.518.518a.733.733 0 0 0 1.037 1.038l.519-.519ZM4.4 31.748l-.519.519a.733.733 0 1 0 1.037 1.037l.519-.519A.733.733 0 0 0 4.4 31.748ZM4.4 26.615l-.519.518a.733.733 0 1 0 1.037 1.037l.519-.518A.733.733 0 0 0 4.4 26.615ZM11 38.563l-.518.518a.733.733 0 1 0 1.037 1.037l.518-.518A.733.733 0 0 0 11 38.563ZM16.348 38.563l-.518.519a.734.734 0 1 0 1.037 1.036l.518-.518a.733.733 0 0 0-1.037-1.037Z" />
    </g>
    <defs>
      <clipPath id="ara"><path fill="#fff" d="M0 0h44v44H0z" /></clipPath>
    </defs></svg
  ><svg
    fill="none"
    viewBox="0 0 21 21"
    id="search-icon"
    xmlns="http://www.w3.org/2000/svg">
    <ellipse
      cx="9.767"
      cy="9.841"
      rx="8.989"
      ry="8.884"
      stroke="#363853"
      stroke-width="1.5"
      stroke-linecap="round"
      stroke-linejoin="round" />
    <path
      d="m16.018 16.481 3.524 3.474"
      stroke="#363853"
      stroke-width="1.5"
      stroke-linecap="round"
      stroke-linejoin="round" /></svg
  ><svg
    fill="none"
    viewBox="0 0 44 45"
    id="set-menu-icon"
    xmlns="http://www.w3.org/2000/svg">
    <g clip-path="url(#ata)" fill="#363853">
      <path
        d="m31.158 15.53-.47-1.53c-.599-1.74-2.51-2.671-4.27-2.08A3.347 3.347 0 0 0 24.312 14l-.47 1.53a8.507 8.507 0 0 0-.243 3.987 3.753 3.753 0 0 0 1.953 2.613l-.527 11.65c-.07.65.143 1.3.587 1.785a2.583 2.583 0 0 0 3.78 0 2.248 2.248 0 0 0 .587-1.736l-.53-11.7a3.753 3.753 0 0 0 1.95-2.612 8.508 8.508 0 0 0-.242-3.986Zm-1.202 3.735a2.307 2.307 0 0 1-1.522 1.732.725.725 0 0 0-.474.71l.557 12.237a.832.832 0 0 1-.22.656 1.142 1.142 0 0 1-1.594 0 .863.863 0 0 1-.216-.704l.553-12.188a.725.725 0 0 0-.474-.711 2.307 2.307 0 0 1-1.522-1.732 7.069 7.069 0 0 1 .202-3.31l.47-1.532a1.908 1.908 0 0 1 3.568 0l.47 1.533a7.077 7.077 0 0 1 .202 3.31ZM19.8 11.746a.73.73 0 0 0-.733.725v6.223l-1.986 1.962a.72.72 0 0 0-.214.549l.641 12.684a.98.98 0 0 1-.277.739c-.401.4-1.055.403-1.46.006l-.007-.006a.98.98 0 0 1-.277-.739l.646-12.684a.72.72 0 0 0-.214-.549l-1.986-1.962v-6.223a.73.73 0 0 0-.733-.725.73.73 0 0 0-.733.725v6.523a.72.72 0 0 0 .214.512l1.97 1.948-.625 12.365c-.067 1.35.987 2.499 2.354 2.565 1.366.065 2.528-.976 2.594-2.327.004-.08.004-.159 0-.238l-.625-12.365 1.97-1.947a.72.72 0 0 0 .214-.513v-6.523a.73.73 0 0 0-.733-.725Z" />
      <path
        d="M15.4 11.746a.73.73 0 0 0-.733.725v5.798c0 .4.328.725.733.725a.73.73 0 0 0 .733-.725v-5.798a.73.73 0 0 0-.733-.725ZM17.6 11.746a.73.73 0 0 0-.733.725v5.798c0 .4.328.725.733.725a.73.73 0 0 0 .733-.725v-5.798a.73.73 0 0 0-.733-.725Z" />
      <path
        d="M22 .874C9.85.874 0 10.609 0 22.618c0 12.01 9.85 21.745 22 21.745s22-9.736 22-21.745C43.986 10.615 34.145.888 22 .874Zm0 42.04c-11.34 0-20.533-9.087-20.533-20.296C1.467 11.41 10.66 2.323 22 2.323c11.34 0 20.533 9.087 20.533 20.295C42.52 33.822 33.335 42.901 22 42.913Z" />
      <path
        d="M24.38 36.225a.731.731 0 0 0-.83-.648l.004-.001a13.618 13.618 0 0 1-3.108 0 .732.732 0 0 0-.814.636.727.727 0 0 0 .643.805c1.145.132 2.302.132 3.447 0a.727.727 0 0 0 .658-.792ZM33.22 13.278a.74.74 0 0 0-1.033-.09l-.003.003a.72.72 0 0 0-.088 1.021 12.936 12.936 0 0 1-.778 17.648.719.719 0 0 0-.002 1.025.74.74 0 0 0 1.037.002 14.374 14.374 0 0 0 .867-19.609ZM17.086 10.455h-.004.004ZM25.46 8.527a14.96 14.96 0 0 0-8.633.524.722.722 0 0 0 .258 1.403.743.743 0 0 0 .256-.047 13.47 13.47 0 0 1 7.773-.471.724.724 0 1 0 .345-1.41ZM12.65 31.823a12.887 12.887 0 0 1-3.85-9.205 12.85 12.85 0 0 1 2.523-7.674.72.72 0 0 0-.145-1.015.74.74 0 0 0-1.04.16 14.371 14.371 0 0 0 1.472 18.76.74.74 0 0 0 1.039.001.72.72 0 0 0 0-1.027Z" />
    </g>
    <defs>
      <clipPath id="ata">
        <path fill="#fff" transform="translate(0 .874)" d="M0 0h44v43.489H0z" />
      </clipPath>
    </defs></svg
  ><svg
    fill="none"
    viewBox="0 0 35 37"
    id="store-icon"
    xmlns="http://www.w3.org/2000/svg">
    <g clip-path="url(#aua)">
      <path
        d="M26.688 32.188h-3.063v-8.79a1.904 1.904 0 0 0 1.392-2.546l-1.392-3.621v-6.919a.437.437 0 0 0-.438-.437H4.813a.437.437 0 0 0-.437.438v6.918l-1.392 3.62A1.902 1.902 0 0 0 4.375 23.4v8.788H1.312a.437.437 0 0 0-.437.438v3.063a.437.437 0 0 0 .438.437h25.375a.437.437 0 0 0 .437-.438v-3.062a.437.437 0 0 0-.438-.438Zm-4.813 0v-9.332a1.9 1.9 0 0 0 .875.516v8.816h-.875Zm-3.5.437v2.625h-1.75v-3.063h.875a.438.438 0 0 0 .438-.437v-1.313A.438.438 0 0 0 17.5 30h-2.625a.438.438 0 0 0-.438.438v1.312a.438.438 0 0 0 .438.438h.875v3.062H14v-2.625a.437.437 0 0 0-.438-.438h-.874v-1.312a.437.437 0 0 0-.438-.438h-.875v-7.04a1.902 1.902 0 0 0 1.081-.651 1.883 1.883 0 0 0 1.467.692h.154a1.885 1.885 0 0 0 1.467-.692c.063.076.132.147.206.213v1.354a2.19 2.19 0 0 0-2.188 2.187.437.437 0 0 0 .438.438h4.375a.437.437 0 0 0 .438-.438 2.19 2.19 0 0 0-2.188-2.188v-.914c.127.026.257.04.387.04h.136a1.901 1.901 0 0 0 1.484-.712 1.896 1.896 0 0 0 1.486.712h.085c.275 0 .547-.059.797-.173v7.172h-.875a.437.437 0 0 0-.438.438v1.313h-.875a.437.437 0 0 0-.437.437Zm-3.063-1.313v-.437h1.75v.438h-1.75ZM6.806 21.265l.966-3.515h1.776l-.652 3.952a1.024 1.024 0 0 1-1.013.86h-.085a1.028 1.028 0 0 1-.992-1.297Zm.195 2c.25.114.522.173.797.172h.085a1.895 1.895 0 0 0 1.486-.712 1.899 1.899 0 0 0 1.132.68v2.22H7v-2.36Zm3.852-.703a1.026 1.026 0 0 1-1.014-1.194l.596-3.618h1.791l-.21 3.841a1.027 1.027 0 0 1-1.027.971h-.136Zm3.971-.32a1.017 1.017 0 0 1-.746.32h-.154a1.026 1.026 0 0 1-1.026-1.08l.204-3.732h1.797l.205 3.729v.002a1.014 1.014 0 0 1-.28.76Zm1.163-.65-.211-3.842h1.791l.596 3.618a1.029 1.029 0 0 1-1.014 1.195h-.136a1.027 1.027 0 0 1-1.026-.972Zm.639 3.596a1.314 1.314 0 0 1 1.238.875h-3.35a1.315 1.315 0 0 1 1.237-.875h.875Zm4.395-3.03a1.02 1.02 0 0 1-.817.404h-.085a1.024 1.024 0 0 1-1.013-.86l-.652-3.952h1.776l.965 3.513v.002a1.023 1.023 0 0 1-.174.893Zm-.457 9.154H21v.875h-.438v-.874ZM24.2 21.166a1.028 1.028 0 1 1-1.95.641l-1.115-4.057h1.751l1.314 3.416ZM5.25 10.75h17.5v6.125H5.25V10.75ZM3.911 22.117a1.014 1.014 0 0 1-.112-.951l1.314-3.416h1.75L5.75 21.807a1.03 1.03 0 0 1-1.47.639 1.013 1.013 0 0 1-.368-.33Zm1.339 1.255a1.9 1.9 0 0 0 .875-.516v9.331H5.25v-8.815Zm3.5 11.878h-7v-2.188h7v2.188Zm.438-3.063H7V26.5h3.5v8.75h-.875v-2.625a.437.437 0 0 0-.438-.438Zm2.187-.874h.438v1.312a.437.437 0 0 0 .437.438h.875v2.187h-1.75v-3.938ZM26.25 35.25h-7v-2.188h7v2.188Z"
        fill="url(#aub)" />
      <path
        d="M17.063 14.25h-.475a2.63 2.63 0 0 0-2.15-2.15v-.475a.438.438 0 0 0-.876 0v.475a2.63 2.63 0 0 0-2.15 2.15h-.475a.438.438 0 0 0-.437.438 1.752 1.752 0 0 0 1.75 1.75h3.5a1.752 1.752 0 0 0 1.75-1.75.438.438 0 0 0-.438-.438ZM14 12.937a1.753 1.753 0 0 1 1.695 1.313h-3.39A1.753 1.753 0 0 1 14 12.937Zm1.75 2.626h-3.5a.875.875 0 0 1-.758-.438h5.016a.876.876 0 0 1-.758.438Z"
        fill="url(#auc)" />
      <path
        d="M10.743 13.302a.437.437 0 0 0 .194-.364v-1.313h-.874v1.063a1.93 1.93 0 0 1-.438.16v-1.223H8.75v1.223a1.93 1.93 0 0 1-.438-.16v-1.063h-.874v1.313a.437.437 0 0 0 .194.364c.337.224.718.373 1.118.437v2.698h.875V13.74c.4-.064.781-.213 1.118-.438Z"
        fill="url(#aud)" />
      <path
        d="M18.812 11.188a1.75 1.75 0 0 0-.437 3.444v1.806h.875v-1.806a1.75 1.75 0 0 0-.438-3.444Zm0 2.624a.874.874 0 1 1 0-1.748.874.874 0 0 1 0 1.748Z"
        fill="url(#aue)" />
    </g>
    <ellipse
      opacity=".15"
      cx="22.097"
      cy="12.5"
      rx="12.097"
      ry="12.5"
      fill="url(#auf)" />
    <defs>
      <linearGradient
        id="aub"
        x1=".875"
        y1="22.125"
        x2="26.496"
        y2="22.239"
        gradientUnits="userSpaceOnUse">
        <stop stop-color="#FF5050" />
        <stop offset="1" stop-color="#FF7070" stop-opacity=".84" />
      </linearGradient>
      <linearGradient
        id="auc"
        x1="10.5"
        y1="13.637"
        x2="17.332"
        y2="13.678"
        gradientUnits="userSpaceOnUse">
        <stop stop-color="#FF5050" />
        <stop offset="1" stop-color="#FF7070" stop-opacity=".84" />
      </linearGradient>
      <linearGradient
        id="aud"
        x1="7.438"
        y1="13.871"
        x2="10.854"
        y2="13.882"
        gradientUnits="userSpaceOnUse">
        <stop stop-color="#FF5050" />
        <stop offset="1" stop-color="#FF7070" stop-opacity=".84" />
      </linearGradient>
      <linearGradient
        id="aue"
        x1="17.062"
        y1="13.637"
        x2="20.479"
        y2="13.648"
        gradientUnits="userSpaceOnUse">
        <stop stop-color="#FF5050" />
        <stop offset="1" stop-color="#FF7070" stop-opacity=".84" />
      </linearGradient>
      <linearGradient
        id="auf"
        x1="10"
        y1="11.667"
        x2="33.614"
        y2="11.769"
        gradientUnits="userSpaceOnUse">
        <stop stop-color="#FF7070" />
        <stop offset="1" stop-color="#FF7070" stop-opacity=".65" />
      </linearGradient>
      <clipPath id="aua">
        <path fill="#fff" transform="translate(0 9)" d="M0 0h28v28H0z" />
      </clipPath>
    </defs></svg
  ><svg
    fill="none"
    viewBox="0 0 17 16"
    id="subscribe"
    xmlns="http://www.w3.org/2000/svg">
    <path
      d="M10.525 14.3a.651.651 0 0 1-.582-.36l-1.929-3.858a.652.652 0 0 1 .047-.66L11.175 5.2 6.953 8.314a.653.653 0 0 1-.66.046L2.433 6.432A.651.651 0 0 1 2.5 5.24L14.85.69a.652.652 0 0 1 .835.835l-4.55 12.35a.649.649 0 0 1-.574.424l-.036.001Z"
      fill="#fff" /></svg
  ><svg
    fill="none"
    viewBox="0 0 1170 312"
    id="subscribe-bg"
    xmlns="http://www.w3.org/2000/svg">
    <mask
      id="ava"
      style="mask-type: alpha"
      maskUnits="userSpaceOnUse"
      x="0"
      y="0"
      width="1170"
      height="312">
      <path opacity=".3" fill="#1C9DFB" d="M0 0h1170v312H0z" />
    </mask>
    <g mask="url(#ava)">
      <mask
        id="avb"
        style="mask-type: alpha"
        maskUnits="userSpaceOnUse"
        x="585"
        y="0"
        width="585"
        height="334">
        <path
          transform="rotate(180 1170 333.45)"
          fill="#fff"
          d="M1170 333.45h585V666.9h-585z" />
      </mask>
      <g mask="url(#avb)">
        <path
          opacity=".1"
          d="M750.465 20.813 585.024 222.428v90.288L825.789 20.813h-75.324Z"
          fill="url(#avc)" />
        <path
          opacity=".05"
          d="m1037.11 431.775 171.18-208.603v-93.417l-249.111 302.02h77.931Z"
          fill="url(#avd)" />
        <path
          opacity=".12"
          d="M1169.8-17.241h-60.65L755.724 384.536h242.903L1169.8 175.933V-17.241Z"
          fill="url(#ave)" />
      </g>
      <rect
        x=".203"
        y="1.971"
        width="14.001"
        height="13.551"
        rx="2.5"
        transform="matrix(.8146 .58003 -.67941 .73376 854.243 216.879)"
        stroke="#fff"
        stroke-width="3" />
      <rect
        x=".203"
        y="1.971"
        width="14.001"
        height="13.551"
        rx="2.5"
        transform="matrix(.8146 .58003 -.67941 .73376 1005.17 158.828)"
        stroke="#fff"
        stroke-width="3" />
      <rect
        x=".203"
        y="1.971"
        width="14.001"
        height="13.551"
        rx="2.5"
        transform="matrix(.8146 .58003 -.67941 .73376 560.89 298.126)"
        stroke="#FDB735"
        stroke-width="3" />
      <rect
        x=".135"
        y="1.314"
        width="9.885"
        height="9.571"
        rx="2"
        transform="matrix(.8146 .58003 -.67941 .73376 651.196 106.546)"
        stroke="#fff"
        stroke-width="2" />
      <path
        d="M902.308 307.234c-1.458.612-2.675 1.594-3.496 2.821-.821 1.227-1.209 2.643-1.116 4.07.094 1.427.664 2.8 1.641 3.947.976 1.146 2.314 2.014 3.844 2.493 1.53.48 3.183.549 4.751.2 1.568-.349 2.98-1.101 4.058-2.162 1.078-1.06 1.772-2.38 1.996-3.794"
        stroke="#FDB735"
        stroke-width="3"
        stroke-linecap="round" />
    </g>
    <defs>
      <linearGradient
        id="avc"
        x1="455.971"
        y1="392.266"
        x2="865.231"
        y2="137.55"
        gradientUnits="userSpaceOnUse">
        <stop stop-color="#fff" />
        <stop offset=".775" stop-color="#fff" />
        <stop offset="1" stop-color="#fff" stop-opacity="0" />
      </linearGradient>
      <linearGradient
        id="avd"
        x1="1341.82"
        y1="47.447"
        x2="918.37"
        y2="310.992"
        gradientUnits="userSpaceOnUse">
        <stop stop-color="#fff" />
        <stop offset=".775" stop-color="#fff" />
        <stop offset="1" stop-color="#fff" stop-opacity="0" />
      </linearGradient>
      <linearGradient
        id="ave"
        x1="1269.25"
        y1="-124.483"
        x2="966.633"
        y2="376.066"
        gradientUnits="userSpaceOnUse">
        <stop stop-color="#fff" />
        <stop offset=".833" stop-color="#fff" />
        <stop offset="1" stop-color="#fff" stop-opacity="0" />
      </linearGradient>
    </defs></svg
  ><svg
    fill="none"
    viewBox="0 0 41 34"
    id="timer-icon"
    xmlns="http://www.w3.org/2000/svg">
    <g clip-path="url(#axa)">
      <path
        d="m31.754 12.881.996-.996c.288-.288.447-.67.447-1.078 0-.407-.159-.79-.447-1.077l-1.14-1.141a1.514 1.514 0 0 0-1.078-.447c-.407 0-.79.159-1.078.447l-.996.996a12.7 12.7 0 0 0-4.412-1.933V6.179h.606a1.49 1.49 0 0 0 1.488-1.488v-2.07a1.49 1.49 0 0 0-1.488-1.488H17.8a1.49 1.49 0 0 0-1.488 1.488v2.07c0 .82.668 1.488 1.488 1.488h.606v1.477a12.703 12.703 0 0 0-4.392 1.929l-.996-.996a1.514 1.514 0 0 0-1.078-.447c-.407 0-.79.159-1.078.447l-1.14 1.14a1.526 1.526 0 0 0 0 2.156l.176.177H5.19a.664.664 0 0 0 0 1.328h5.193a12.713 12.713 0 0 0-1.215 2.552H.664a.664.664 0 0 0 0 1.328H8.79a12.747 12.747 0 0 0-.314 2.553H4.25a.664.664 0 0 0 0 1.328h4.265c.072.879.233 1.733.474 2.552H3.32a.664.664 0 0 0 0 1.329h6.142c1.932 4.598 6.482 7.835 11.774 7.835C28.274 32.867 34 27.142 34 20.104c0-2.678-.83-5.167-2.246-7.222Zm-1.36-3.353a.192.192 0 0 1 .138-.058c.037 0 .091.01.139.058l1.14 1.14a.193.193 0 0 1 .058.14c0 .037-.01.09-.058.138l-.873.873c-.435-.509-.91-.983-1.418-1.418l.873-.873ZM17.64 4.69v-2.07a.16.16 0 0 1 .16-.16h6.852a.16.16 0 0 1 .16.16v2.07a.16.16 0 0 1-.16.16H17.8a.16.16 0 0 1-.16-.16Zm2.095 1.488h2.983v1.247a12.835 12.835 0 0 0-2.983.002V6.179Zm-9.075 4.49 1.141-1.141a.192.192 0 0 1 .139-.058c.037 0 .091.01.139.058l.873.873c-.51.435-.983.91-1.418 1.418l-.874-.873a.196.196 0 0 1 0-.277Zm10.576 20.87C14.93 31.54 9.8 26.41 9.8 20.103S14.93 8.667 21.236 8.667s11.436 5.13 11.436 11.436-5.13 11.436-11.436 11.436Z"
        fill="url(#axb)" />
      <path
        d="m25.619 14.781-3.14 3.14a2.498 2.498 0 0 0-1.243-.331 2.517 2.517 0 0 0-2.514 2.513 2.517 2.517 0 0 0 2.514 2.514 2.516 2.516 0 0 0 2.514-2.514c0-.452-.121-.877-.331-1.244l3.139-3.139a.664.664 0 0 0-.94-.939Zm-4.383 6.508a1.187 1.187 0 0 1-1.186-1.186 1.187 1.187 0 0 1 2.371 0c0 .654-.531 1.186-1.185 1.186Z"
        fill="url(#axc)" />
      <path
        d="M21.236 11.494a.669.669 0 0 0 .47-.195.67.67 0 0 0 .194-.47.669.669 0 0 0-.664-.664.67.67 0 0 0-.47.195.668.668 0 0 0 .47 1.134Z"
        fill="url(#axd)" />
      <path
        d="M21.236 28.713a.669.669 0 0 0-.47.194.668.668 0 0 0 .47 1.134.666.666 0 0 0 .664-.664.669.669 0 0 0-.194-.47.669.669 0 0 0-.47-.194Z"
        fill="url(#axe)" />
      <path
        d="M14.678 12.882a.67.67 0 0 0-.47.194.67.67 0 0 0-.194.47.67.67 0 0 0 .195.47.669.669 0 0 0 .939 0 .67.67 0 0 0 .194-.47.67.67 0 0 0-.194-.47.669.669 0 0 0-.47-.194Z"
        fill="url(#axf)" />
      <path
        d="M27.794 25.997a.67.67 0 0 0-.47.194.668.668 0 0 0 0 .94.669.669 0 0 0 .94 0 .67.67 0 0 0 .194-.47.669.669 0 0 0-.664-.664Z"
        fill="url(#axg)" />
      <path
        d="M14.678 25.997a.67.67 0 0 0-.47.194.669.669 0 0 0-.194.47.67.67 0 0 0 .195.47.67.67 0 0 0 .47.194.669.669 0 0 0 .469-.195.67.67 0 0 0 .194-.47.67.67 0 0 0-.194-.469.67.67 0 0 0-.47-.194Z"
        fill="url(#axh)" />
      <path
        d="M11.962 19.44a.667.667 0 0 0-.664.663.666.666 0 0 0 .664.664.666.666 0 0 0 .665-.664.669.669 0 0 0-.665-.664Z"
        fill="url(#axi)" />
      <path
        d="M30.98 19.634a.667.667 0 0 0-1.134.47.668.668 0 0 0 .664.663.669.669 0 0 0 .47-.194.67.67 0 0 0 .194-.47.67.67 0 0 0-.195-.47Z"
        fill="url(#axj)" />
      <path
        d="M.664 23.704a.669.669 0 0 0-.47.194.67.67 0 0 0-.194.47.67.67 0 0 0 .195.47.67.67 0 0 0 .47.194.669.669 0 0 0 .468-.195.67.67 0 0 0 .195-.47.67.67 0 0 0-.195-.47.668.668 0 0 0-.469-.193Z"
        fill="url(#axk)" />
      <path
        d="M30.314 18.087a.664.664 0 0 0 .447-.826 9.964 9.964 0 0 0-6.704-6.689.664.664 0 1 0-.376 1.274 8.576 8.576 0 0 1 5.807 5.794.664.664 0 0 0 .826.447Z"
        fill="url(#axl)" />
    </g>
    <ellipse
      opacity=".35"
      cx="27.018"
      cy="13.5"
      rx="13.018"
      ry="13.5"
      fill="url(#axm)" />
    <defs>
      <linearGradient
        id="axb"
        x1="0"
        y1="15.942"
        x2="33.185"
        y2="16.101"
        gradientUnits="userSpaceOnUse">
        <stop stop-color="#FF7D3D" />
        <stop offset="1" stop-color="#F99462" stop-opacity=".71" />
      </linearGradient>
      <linearGradient
        id="axc"
        x1="18.722"
        y1="18.334"
        x2="26.56"
        y2="18.369"
        gradientUnits="userSpaceOnUse">
        <stop stop-color="#FF7D3D" />
        <stop offset="1" stop-color="#F99462" stop-opacity=".71" />
      </linearGradient>
      <linearGradient
        id="axd"
        x1="20.572"
        y1="10.785"
        x2="21.868"
        y2="10.791"
        gradientUnits="userSpaceOnUse">
        <stop stop-color="#FF7D3D" />
        <stop offset="1" stop-color="#F99462" stop-opacity=".71" />
      </linearGradient>
      <linearGradient
        id="axe"
        x1="20.572"
        y1="29.333"
        x2="21.868"
        y2="29.338"
        gradientUnits="userSpaceOnUse">
        <stop stop-color="#FF7D3D" />
        <stop offset="1" stop-color="#F99462" stop-opacity=".71" />
      </linearGradient>
      <linearGradient
        id="axf"
        x1="14.014"
        y1="13.501"
        x2="15.311"
        y2="13.507"
        gradientUnits="userSpaceOnUse">
        <stop stop-color="#FF7D3D" />
        <stop offset="1" stop-color="#F99462" stop-opacity=".71" />
      </linearGradient>
      <linearGradient
        id="axg"
        x1="27.13"
        y1="26.616"
        x2="28.426"
        y2="26.622"
        gradientUnits="userSpaceOnUse">
        <stop stop-color="#FF7D3D" />
        <stop offset="1" stop-color="#F99462" stop-opacity=".71" />
      </linearGradient>
      <linearGradient
        id="axh"
        x1="14.014"
        y1="26.616"
        x2="15.311"
        y2="26.622"
        gradientUnits="userSpaceOnUse">
        <stop stop-color="#FF7D3D" />
        <stop offset="1" stop-color="#F99462" stop-opacity=".71" />
      </linearGradient>
      <linearGradient
        id="axi"
        x1="11.298"
        y1="20.059"
        x2="12.595"
        y2="20.065"
        gradientUnits="userSpaceOnUse">
        <stop stop-color="#FF7D3D" />
        <stop offset="1" stop-color="#F99462" stop-opacity=".71" />
      </linearGradient>
      <linearGradient
        id="axj"
        x1="29.846"
        y1="20.059"
        x2="31.142"
        y2="20.065"
        gradientUnits="userSpaceOnUse">
        <stop stop-color="#FF7D3D" />
        <stop offset="1" stop-color="#F99462" stop-opacity=".71" />
      </linearGradient>
      <linearGradient
        id="axk"
        x1="0"
        y1="24.323"
        x2="1.296"
        y2="24.329"
        gradientUnits="userSpaceOnUse">
        <stop stop-color="#FF7D3D" />
        <stop offset="1" stop-color="#F99462" stop-opacity=".71" />
      </linearGradient>
      <linearGradient
        id="axl"
        x1="23.204"
        y1="14.077"
        x2="30.607"
        y2="14.11"
        gradientUnits="userSpaceOnUse">
        <stop stop-color="#FF7D3D" />
        <stop offset="1" stop-color="#F99462" stop-opacity=".71" />
      </linearGradient>
      <linearGradient
        id="axm"
        x1="14"
        y1="12.6"
        x2="39.412"
        y2="12.709"
        gradientUnits="userSpaceOnUse">
        <stop stop-color="#F99462" />
        <stop offset="1" stop-color="#F99462" stop-opacity=".65" />
      </linearGradient>
      <clipPath id="axa"><path fill="#fff" d="M0 0h34v34H0z" /></clipPath>
    </defs></svg
  ><svg
    fill="none"
    viewBox="0 0 24 24"
    id="toparrow-icon"
    xmlns="http://www.w3.org/2000/svg">
    <path
      d="M13.121 6.293a1 1 0 0 0 0 1.414L16.413 11 6 11.007a1 1 0 0 0 0 2L16.414 13l-3.293 3.293a1 1 0 1 0 1.414 1.414l3.586-3.585a3 3 0 0 0 0-4.243l-3.586-3.586a1 1 0 0 0-1.414 0Z"
      fill="#fff" /></svg
  ><svg
    fill="none"
    viewBox="0 0 22 22"
    id="toptimer-icon"
    xmlns="http://www.w3.org/2000/svg">
    <g opacity=".9" fill="#363853">
      <path
        d="M11.575 2.54v-.959a.611.611 0 0 0-1.222 0v.965c-4.803.333-8.609 4.344-8.609 9.23 0 5.102 4.153 9.254 9.256 9.254 5.103 0 9.256-4.152 9.256-9.255 0-4.91-3.845-8.937-8.681-9.235ZM11 19.808c-4.43 0-8.033-3.604-8.033-8.033 0-4.43 3.603-8.033 8.033-8.033s8.033 3.604 8.033 8.033c0 4.429-3.603 8.033-8.033 8.033Z" />
      <path
        d="M7.863 17.322a6.39 6.39 0 0 1-3.234-5.547.305.305 0 1 0-.611 0 7.004 7.004 0 0 0 3.544 6.079.306.306 0 0 0 .301-.532ZM9.53 18.16a6.94 6.94 0 0 1-.353-.102.306.306 0 0 0-.186.582c.127.04.255.078.385.11a.305.305 0 0 0 .153-.59ZM18.885 5.728a.611.611 0 0 0 .863-.865L18.162 3.28a.61.61 0 1 0-.863.865l1.586 1.583ZM11.575 11.661V6.776a.611.611 0 0 0-1.223 0v5.15c0 .168.088.328.21.443l1.789 1.672a.61.61 0 0 0 .657.117.61.61 0 0 0 .163-1.006l-1.596-1.49Z" />
    </g></svg
  ><svg
    fill="none"
    viewBox="0 0 39 39"
    id="twitter"
    xmlns="http://www.w3.org/2000/svg">
    <circle cx="19.5" cy="19.5" r="19.5" fill="#EEEEEF" />
    <path
      d="M29.763 13.27a8.434 8.434 0 0 1-2.422.652 4.195 4.195 0 0 0 1.85-2.32 8.304 8.304 0 0 1-2.67 1.017 4.197 4.197 0 0 0-3.073-1.33 4.205 4.205 0 0 0-4.206 4.209c0 .326.04.651.104.964a11.954 11.954 0 0 1-8.673-4.403 4.177 4.177 0 0 0-.573 2.124c0 1.46.743 2.748 1.875 3.506a4.243 4.243 0 0 1-1.902-.536v.052a4.207 4.207 0 0 0 3.372 4.13 4.457 4.457 0 0 1-1.107.142c-.274 0-.533-.027-.795-.064a4.214 4.214 0 0 0 3.933 2.919 8.431 8.431 0 0 1-5.223 1.798c-.353 0-.678-.012-1.016-.052a11.911 11.911 0 0 0 6.46 1.887c7.736 0 11.97-6.409 11.97-11.971 0-.183 0-.365-.013-.548a9.058 9.058 0 0 0 2.11-2.176Z"
      fill="#363853" />
  </svg>
</svg>
