<?xml version="1.0" encoding="utf-8"?><svg
  viewBox="0 0 102 39"
  xmlns="http://www.w3.org/2000/svg"
  xmlns:xlink="http://www.w3.org/1999/xlink">
  <style>
    :root > svg {
      display: none;
    }
    :root > svg:target {
      display: block;
    }
  </style>
  <svg
    fill="none"
    viewBox="0 0 21 20"
    id="basket-icon"
    xmlns="http://www.w3.org/2000/svg">
    <path
      d="m1 1.176 2.08.356.963 11.34c.077.926.86 1.636 1.8 1.633h10.909a1.794 1.794 0 0 0 1.785-1.528l.949-6.482a1.328 1.328 0 0 0-1.135-1.501c-.064-.009-14.937-.014-14.937-.014M12.375 8.633h2.773"
      stroke="#363853"
      stroke-width="1.5"
      stroke-linecap="round"
      stroke-linejoin="round" />
    <path
      fill-rule="evenodd"
      clip-rule="evenodd"
      d="M5.404 17.932a.54.54 0 0 1 .544.538.541.541 0 0 1-.544.539.541.541 0 0 1-.544-.54.54.54 0 0 1 .544-.537ZM16.685 17.932c.3 0 .545.24.545.538a.542.542 0 0 1-.545.539.541.541 0 0 1-.544-.54.54.54 0 0 1 .544-.537Z"
      fill="#363853"
      stroke="#363853"
      stroke-width="1.5"
      stroke-linecap="round"
      stroke-linejoin="round" /></svg
  ><svg
    fill="none"
    viewBox="0 0 33 34"
    id="delivery-icon"
    xmlns="http://www.w3.org/2000/svg">
    <path
      d="m5.75 25.544.36.856a3.89 3.89 0 0 1 .789-.23l-.168-.912c-.336.06-.665.157-.98.286Z"
      fill="url(#ba)" />
    <path
      d="m3.288 27.844.844.404a3.813 3.813 0 0 1 1.289-1.48l-.53-.764a4.745 4.745 0 0 0-1.603 1.84Z"
      fill="url(#bb)" />
    <path
      d="M29.063 27.583c0-.798-.297-1.568-.836-2.162l-.699.618c.277.305.467.678.55 1.08h-3.234a.473.473 0 0 0-.39.207l-1.736 2.573h-1.155v-1.39c0-.86.347-1.684.962-2.292a3.304 3.304 0 0 1 2.319-.95h.937c.461-.002.912.133 1.296.385l.519-.771a3.285 3.285 0 0 0-1.346-.508V22.95a.46.46 0 0 0-.137-.328.471.471 0 0 0-.332-.136c-.497 0-.973-.195-1.325-.543a1.844 1.844 0 0 1-.55-1.31V18.78h1.407a.472.472 0 0 0 .331-.136.46.46 0 0 0 .137-.327v-3.244a.46.46 0 0 0-.137-.327.472.472 0 0 0-.331-.136h-.827c-.196 0-.391.027-.58.08v-.543a.46.46 0 0 0-.102-.29l-1.534-1.895a1.605 1.605 0 0 0-.38-2.087 1.653 1.653 0 0 0-2.144.069 1.607 1.607 0 0 0-.242 2.107 1.658 1.658 0 0 0 2.075.541l1.39 1.717v.585l-2.061-.679a1.277 1.277 0 0 0-.42-.068h-3.866l-2.226-2.566A1.394 1.394 0 0 0 15 10.44v-.178l.678-.335a.467.467 0 0 0 .253-.49.46.46 0 0 0-.072-.181l-.77-1.142a.47.47 0 0 0 .38-.454c-.001-.737-.298-1.444-.825-1.965a2.832 2.832 0 0 0-1.988-.815c-.883 0-1.7.25-2.308.914a2.778 2.778 0 0 0-.713 2.142l.1.991c.042.427.25.822.578 1.103v8.749c0 .325.086.645.252.927h-.721c-.16 0-.318.026-.469.08v-6.103c0-.369-.149-.722-.412-.983a1.416 1.416 0 0 0-.994-.407H2.344c-.373 0-.73.147-.994.407s-.412.614-.413.983V16h.938v-.927h6.563v4.634H1.875v-2.78H.937v3.783a.92.92 0 0 0 .218.594.94.94 0 0 0 .552.318l4.387.788v1.087a6.695 6.695 0 0 0-1.16.38h-2.59a.472.472 0 0 0-.332.135.46.46 0 0 0-.137.328v2.199a6.523 6.523 0 0 0-.938 3.36c0 .123.05.241.138.328a.472.472 0 0 0 .331.136h2.149c.28.684.76 1.27 1.38 1.683a3.781 3.781 0 0 0 4.193 0c.619-.413 1.1-.999 1.38-1.683h7.881a2.371 2.371 0 0 0 1.734-.758l.502-.546v1.304c0 .123.05.24.137.327a.471.471 0 0 0 .332.136h.971a3.737 3.737 0 0 0 1.813 1.571 3.792 3.792 0 0 0 2.405.156 3.753 3.753 0 0 0 2.005-1.324 3.678 3.678 0 0 0 .622-3.305.462.462 0 0 0 .152-.341Zm-8.907-16.448a.69.69 0 0 1 .434-.642.71.71 0 0 1 .767.151.692.692 0 0 1-.498 1.186.708.708 0 0 1-.497-.203.692.692 0 0 1-.206-.492ZM13.45 27.583c-.459 0-.899-.181-1.224-.502a1.704 1.704 0 0 1-.507-1.21c0-.454.116-.88.423-1.23.273-.31.65-.514 1.063-.573.498-.07.954-.316 1.284-.692.33-.375.51-.856.511-1.353a.457.457 0 0 0-.137-.328 1.373 1.373 0 0 0 .056-1.062h1.273l-2.056 5.286c-.05.128-.075.263-.073.4v1.264h-.613Zm1.55-.927h2.344a.473.473 0 0 1 .448.33.458.458 0 0 1-.188.519.948.948 0 0 1-.374.078H15v-.927Zm3.638-.08a1.396 1.396 0 0 0-.427-.55 1.418 1.418 0 0 0-.641-.278l1.941-4.62a2.673 2.673 0 0 0-.251-2.536 2.72 2.72 0 0 0-.985-.883c-.396-.21-.839-.319-1.289-.319H15v-.735l.137.136a.47.47 0 0 0 .332.136h4.768a1.375 1.375 0 0 0 .177 1.266 1.401 1.401 0 0 0 1.148.587h.002c-.306.4-.47.888-.47 1.39v3.594c-.001.246-.1.481-.275.655l-2.181 2.156Zm2.924-8.723a.473.473 0 0 1-.433-.286.459.459 0 0 1 .102-.505.47.47 0 0 1 .8.328.46.46 0 0 1-.137.328.472.472 0 0 1-.331.135Zm3.282-2.316v2.316h-.938v-2.172c.178-.094.378-.144.58-.144h.358Zm-1.875 1.853a1.376 1.376 0 0 0-.595-1.135 1.415 1.415 0 0 0-1.28-.175v-.827l1.875.618v1.52Zm-6.563-2.317h3.75V16h-4.493l-2.675-2.644-.663.655 1.738 1.718v1.661H11.25v-5.56h2.128l2.672 3.082a.47.47 0 0 0 .356.161Zm-5.363-8.656c.429-.468.998-.61 1.613-.61.416 0 .82.138 1.148.39.329.25.563.603.668 1h-1.816a.471.471 0 0 0-.331.136.46.46 0 0 0-.137.328v1.1a.748.748 0 0 1-.211.517.766.766 0 0 1-1.309-.442l-.1-.99a1.812 1.812 0 0 1 .475-1.429Zm.383 4.023c.45 0 .882-.177 1.2-.492.32-.315.498-.742.499-1.187v-.637h.938c0 .091.027.18.078.257l.643.953-.463.229a.467.467 0 0 0-.258.414v.463c0 .123-.05.241-.138.328a.472.472 0 0 1-.331.136H11.25v-.473c.058.006.117.01.176.01Zm-.176 8.34v-.463h5.736c.296 0 .587.072.847.21.261.137.483.336.647.58a1.763 1.763 0 0 1 .165 1.666l-2.083 4.957h-1.348l2.098-5.394a.458.458 0 0 0-.219-.576.473.473 0 0 0-.218-.053h-4.688a.944.944 0 0 1-.662-.272.922.922 0 0 1-.275-.655Zm-1.406 1.853h3.75c.124 0 .243.049.331.136a.46.46 0 0 1-.331.79h-3.75a.472.472 0 0 1-.332-.135.46.46 0 0 1 0-.655.472.472 0 0 1 .332-.136Zm-7.969-6.486v-.463c0-.123.05-.241.137-.328a.472.472 0 0 1 .332-.136h5.625c.124 0 .243.05.331.136a.461.461 0 0 1 .137.328v.463H1.875Zm0 6.486h6.563v.927H6.604l-4.73-.85v-.077Zm1.517 4.17a6.61 6.61 0 0 0-.58.524v-.524h.58Zm3.64 6.95a2.859 2.859 0 0 1-1.405-.376 2.818 2.818 0 0 1-1.03-1.014h1.195a1.885 1.885 0 0 0 2.478 0h1.196c-.248.42-.603.77-1.03 1.014a2.859 2.859 0 0 1-1.405.376Zm12.398-2.771a1.409 1.409 0 0 1-1.04.454H1.893A5.61 5.61 0 0 1 3.3 26.17a5.724 5.724 0 0 1 3.1-1.79c.121-.027.245-.04.369-.04h3.076v-.927H7.03v-.927h6.932a1.142 1.142 0 0 1-.89.665 2.685 2.685 0 0 0-1.64.883c-.453.516-.652 1.162-.652 1.838 0 .627.227 1.234.64 1.71H7.5v.927h9.73a1.92 1.92 0 0 0 1.326-.542l2.926-2.893c.35-.348.548-.819.55-1.31V20.17c0-.287.09-.568.258-.802.168-.235.405-.412.679-.509v1.774c0 .657.236 1.292.665 1.794a2.824 2.824 0 0 0 1.678.947v.966c-.29 0-.588-.018-.878.02a4.252 4.252 0 0 0-2.367 1.014 4.17 4.17 0 0 0-1.33 2.186l-1.307 1.422Zm5.665-.936h.023l.566.56a.52.52 0 0 1 .066.655.524.524 0 0 1-.54.221.527.527 0 0 1-.27-.142l-.43-.426.585-.868Zm.218 3.707a2.855 2.855 0 0 1-2.138-.975.465.465 0 0 0 .184-.158l.406-.603c.226.328.552.575.93.705.378.131.789.139 1.171.022.383-.117.718-.352.956-.67a1.838 1.838 0 0 0 .113-2.028h1.03a2.75 2.75 0 0 1-.357 2.531c-.26.363-.603.66-1.003.864-.4.204-.843.311-1.293.312Z"
      fill="url(#bc)" />
    <path d="M3.75 16h-.938v2.78h.938V16Z" fill="url(#bd)" />
    <ellipse
      opacity=".15"
      cx="20.5"
      cy="12.572"
      rx="12.5"
      ry="12.572"
      fill="url(#be)" />
    <defs>
      <linearGradient
        id="ba"
        x1="5.751"
        y1="25.791"
        x2="6.871"
        y2="25.796"
        gradientUnits="userSpaceOnUse">
        <stop stop-color="#47C2FF" />
        <stop offset="1" stop-color="#1CB4FF" stop-opacity=".71" />
      </linearGradient>
      <linearGradient
        id="bb"
        x1="3.288"
        y1="27.051"
        x2="5.37"
        y2="27.06"
        gradientUnits="userSpaceOnUse">
        <stop stop-color="#47C2FF" />
        <stop offset="1" stop-color="#1CB4FF" stop-opacity=".71" />
      </linearGradient>
      <linearGradient
        id="bc"
        x1=".938"
        y1="17.853"
        x2="28.388"
        y2="17.977"
        gradientUnits="userSpaceOnUse">
        <stop stop-color="#47C2FF" />
        <stop offset="1" stop-color="#1CB4FF" stop-opacity=".71" />
      </linearGradient>
      <linearGradient
        id="bd"
        x1="2.813"
        y1="17.297"
        x2="3.728"
        y2="17.298"
        gradientUnits="userSpaceOnUse">
        <stop stop-color="#47C2FF" />
        <stop offset="1" stop-color="#1CB4FF" stop-opacity=".71" />
      </linearGradient>
      <linearGradient
        id="be"
        x1="8"
        y1="11.733"
        x2="32.401"
        y2="11.842"
        gradientUnits="userSpaceOnUse">
        <stop stop-color="#47C2FF" />
        <stop offset="1" stop-color="#63CBFE" />
      </linearGradient>
    </defs></svg
  ><svg
    fill="none"
    viewBox="0 0 22 20"
    id="email"
    xmlns="http://www.w3.org/2000/svg">
    <path
      d="m16.903 6.851-4.444 3.613c-.84.666-2.02.666-2.86 0L5.12 6.851"
      stroke="#363853"
      stroke-width="1.5"
      stroke-linecap="round"
      stroke-linejoin="round" />
    <path
      clip-rule="evenodd"
      d="M15.909 19C18.95 19.008 21 16.51 21 13.438V6.57C21 3.499 18.95 1 15.909 1H6.09C3.05 1 1 3.499 1 6.57v6.868C1 16.51 3.05 19.008 6.091 19h9.818Z"
      stroke="#363853"
      stroke-width="1.5"
      stroke-linecap="round"
      stroke-linejoin="round" /></svg
  ><svg
    fill="none"
    viewBox="0 0 39 39"
    id="facebook"
    xmlns="http://www.w3.org/2000/svg">
    <circle cx="19.5" cy="19.5" r="19.5" fill="#EEEEEF" />
    <path
      d="M16.915 29.763v-9.631h-2.547v-3.468h2.547v-2.962c0-2.328 1.505-4.465 4.971-4.465 1.404 0 2.441.134 2.441.134l-.082 3.239s-1.058-.01-2.213-.01c-1.25 0-1.45.575-1.45 1.532v2.532h3.763l-.164 3.468h-3.6v9.631h-3.666Z"
      fill="#363853" /></svg
  ><svg
    fill="none"
    viewBox="0 0 39 39"
    id="instagram"
    xmlns="http://www.w3.org/2000/svg">
    <circle cx="19.5" cy="19.5" r="19.5" fill="#EEEEEF" />
    <path
      d="M18.985 16.762a3.258 3.258 0 0 0-3.252 3.251 3.258 3.258 0 0 0 3.252 3.252 3.258 3.258 0 0 0 3.25-3.252 3.258 3.258 0 0 0-3.25-3.251Zm9.751 3.251c0-1.346.012-2.68-.063-4.024-.076-1.562-.432-2.947-1.573-4.088-1.144-1.144-2.527-1.498-4.088-1.574-1.347-.075-2.681-.063-4.025-.063-1.346 0-2.68-.012-4.025.063-1.56.076-2.946.432-4.088 1.574-1.144 1.143-1.497 2.527-1.573 4.088-.076 1.346-.063 2.68-.063 4.024 0 1.344-.013 2.68.063 4.025.076 1.56.432 2.946 1.573 4.088 1.144 1.144 2.527 1.497 4.088 1.573 1.347.076 2.68.063 4.025.063 1.346 0 2.68.013 4.025-.063 1.56-.076 2.946-.432 4.087-1.573 1.145-1.144 1.498-2.527 1.574-4.088.078-1.344.063-2.678.063-4.025Zm-9.752 5.003a4.996 4.996 0 0 1-5.002-5.003 4.996 4.996 0 0 1 5.003-5.003 4.996 4.996 0 0 1 5.002 5.003 4.996 4.996 0 0 1-5.002 5.003Zm5.208-9.042a1.167 1.167 0 0 1-1.168-1.168c0-.647.522-1.169 1.168-1.169a1.167 1.167 0 0 1 .827 1.995 1.166 1.166 0 0 1-.827.342Z"
      fill="#363853" /></svg
  ><svg
    fill="none"
    viewBox="0 0 18 20"
    id="location"
    xmlns="http://www.w3.org/2000/svg">
    <g
      clip-rule="evenodd"
      stroke="#363853"
      stroke-width="1.5"
      stroke-linecap="round"
      stroke-linejoin="round">
      <path d="M11.5 8.5a2.5 2.5 0 1 0-5 0 2.5 2.5 0 0 0 5 0Z" />
      <path
        d="M9 19C7.8 19 1.5 13.898 1.5 8.563 1.5 4.387 4.857 1 9 1c4.142 0 7.5 3.387 7.5 7.563C16.5 13.898 10.198 19 9 19Z" />
    </g></svg
  ><svg
    fill="none"
    viewBox="0 0 102 25"
    id="logo"
    xmlns="http://www.w3.org/2000/svg">
    <path
      d="M1.366 24.292a.764.764 0 0 1-.561-.231.764.764 0 0 1-.231-.561V2.017c0-.242.077-.44.231-.594a.764.764 0 0 1 .561-.231h14.52c.242 0 .44.077.594.231a.804.804 0 0 1 .231.594v2.178c0 .22-.077.407-.231.561a.804.804 0 0 1-.594.231H5.029v5.841H15.16c.242 0 .44.077.594.231.154.132.231.319.231.561v2.046c0 .242-.077.44-.231.594a.88.88 0 0 1-.594.198H5.029v6.039H16.15c.242 0 .44.077.594.231a.804.804 0 0 1 .231.594V23.5c0 .22-.077.407-.231.561a.804.804 0 0 1-.594.231H1.366Z"
      fill="#FF6838" />
    <path
      d="M23.544 24.292a.764.764 0 0 1-.56-.231.764.764 0 0 1-.232-.561V2.017c0-.242.077-.44.231-.594a.764.764 0 0 1 .561-.231h14.322c.242 0 .44.077.594.231a.804.804 0 0 1 .231.594v2.31c0 .242-.077.44-.23.594a.88.88 0 0 1-.595.198H27.273v6.27h9.933c.242 0 .44.077.594.231a.804.804 0 0 1 .231.594v2.31c0 .22-.077.407-.23.561a.804.804 0 0 1-.595.231h-9.933V23.5c0 .22-.077.407-.23.561a.804.804 0 0 1-.595.231h-2.904Zm27.55.33c-1.76 0-3.246-.308-4.456-.924-1.188-.616-2.1-1.485-2.739-2.607-.616-1.122-.968-2.431-1.056-3.927-.022-.396-.033-.88-.033-1.452s.011-1.056.033-1.452c.088-1.518.451-2.827 1.09-3.927.66-1.122 1.583-1.991 2.771-2.607 1.21-.616 2.673-.924 4.39-.924 1.715 0 3.167.308 4.355.924 1.21.616 2.134 1.485 2.772 2.607.66 1.1 1.034 2.409 1.122 3.927.022.396.033.88.033 1.452s-.01 1.056-.033 1.452c-.088 1.496-.45 2.805-1.089 3.927-.616 1.122-1.529 1.991-2.739 2.607-1.188.616-2.662.924-4.422.924Zm0-3.267c1.165 0 2.067-.363 2.705-1.089.638-.748.99-1.837 1.056-3.267.022-.33.033-.759.033-1.287 0-.528-.01-.957-.033-1.287-.066-1.408-.418-2.486-1.056-3.234-.638-.748-1.54-1.122-2.706-1.122s-2.068.374-2.706 1.122c-.638.748-.99 1.826-1.056 3.234-.022.33-.033.759-.033 1.287 0 .528.011.957.033 1.287.066 1.43.418 2.519 1.056 3.267.638.726 1.54 1.089 2.706 1.089Zm21.179 3.267c-1.76 0-3.245-.308-4.455-.924-1.188-.616-2.101-1.485-2.74-2.607-.615-1.122-.967-2.431-1.055-3.927-.022-.396-.033-.88-.033-1.452s.01-1.056.033-1.452c.088-1.518.45-2.827 1.089-3.927.66-1.122 1.584-1.991 2.772-2.607 1.21-.616 2.673-.924 4.389-.924 1.716 0 3.168.308 4.356.924 1.21.616 2.134 1.485 2.772 2.607.66 1.1 1.034 2.409 1.122 3.927.022.396.033.88.033 1.452s-.011 1.056-.033 1.452c-.088 1.496-.451 2.805-1.09 3.927-.615 1.122-1.528 1.991-2.738 2.607-1.188.616-2.662.924-4.422.924Zm0-3.267c1.166 0 2.068-.363 2.706-1.089.638-.748.99-1.837 1.056-3.267.022-.33.033-.759.033-1.287 0-.528-.011-.957-.033-1.287-.066-1.408-.418-2.486-1.056-3.234-.638-.748-1.54-1.122-2.706-1.122s-2.068.374-2.706 1.122c-.638.748-.99 1.826-1.056 3.234-.022.33-.033.759-.033 1.287 0 .528.01.957.033 1.287.066 1.43.418 2.519 1.056 3.267.638.726 1.54 1.089 2.706 1.089Zm19.958 3.267c-1.144 0-2.156-.187-3.036-.561a5.91 5.91 0 0 1-2.145-1.65c-.572-.704-1.012-1.529-1.32-2.475-.308-.968-.484-2.024-.528-3.168a19.265 19.265 0 0 1-.033-1.056c0-.33.011-.693.033-1.089.044-1.1.209-2.123.495-3.069.308-.946.748-1.771 1.32-2.475a6.056 6.056 0 0 1 2.178-1.683c.88-.396 1.892-.594 3.036-.594 1.188 0 2.189.209 3.003.627.836.396 1.529.913 2.079 1.551V1.654c0-.22.066-.407.198-.561a.804.804 0 0 1 .594-.231h2.805c.22 0 .407.077.561.231a.764.764 0 0 1 .231.561V23.5c0 .22-.077.407-.231.561a.764.764 0 0 1-.561.231h-2.607a.804.804 0 0 1-.594-.231.833.833 0 0 1-.198-.561v-1.221c-.55.682-1.254 1.243-2.112 1.683-.836.44-1.892.66-3.168.66Zm1.221-3.531c.924 0 1.661-.209 2.211-.627.55-.418.957-.946 1.221-1.584.264-.66.407-1.331.429-2.013.022-.396.033-.814.033-1.254 0-.462-.011-.891-.033-1.287a4.647 4.647 0 0 0-.462-1.881 3.825 3.825 0 0 0-1.254-1.518c-.55-.396-1.265-.594-2.145-.594-.924 0-1.661.209-2.211.627a3.385 3.385 0 0 0-1.155 1.584 7.508 7.508 0 0 0-.429 2.178c-.022.66-.022 1.32 0 1.98.044.792.187 1.518.429 2.178.242.66.627 1.199 1.155 1.617.55.396 1.287.594 2.211.594Z"
      fill="#363853" /></svg
  ><svg
    fill="none"
    viewBox="0 0 22 22"
    id="phone"
    xmlns="http://www.w3.org/2000/svg">
    <path
      d="M13.353 1.5a7.97 7.97 0 0 1 7.04 7.032M13.353 5.043a4.426 4.426 0 0 1 3.5 3.5"
      stroke="#363853"
      stroke-width="1.5"
      stroke-linecap="round"
      stroke-linejoin="round" />
    <path
      clip-rule="evenodd"
      d="M10.031 11.472c3.99 3.988 4.894-.625 7.434 1.913 2.449 2.448 3.857 2.938.754 6.04-.389.312-2.858 4.07-11.535-4.605-8.677-8.676-4.922-11.148-4.61-11.536 3.11-3.11 3.593-1.695 6.041.753 2.54 2.54-2.072 3.447 1.916 7.435Z"
      stroke="#363853"
      stroke-width="1.5"
      stroke-linecap="round"
      stroke-linejoin="round" /></svg
  ><svg
    fill="none"
    viewBox="0 0 39 39"
    id="pinterest"
    xmlns="http://www.w3.org/2000/svg">
    <circle cx="19.5" cy="19.5" r="19.5" fill="#EEEEEF" />
    <path
      d="M11.29 16.6c0-.888.155-1.726.46-2.509a6.421 6.421 0 0 1 1.28-2.055 8.685 8.685 0 0 1 1.874-1.516c.71-.43 1.48-.754 2.284-.963a9.775 9.775 0 0 1 2.492-.32c1.3 0 2.509.274 3.63.822a6.868 6.868 0 0 1 2.727 2.389c.7 1.043 1.049 2.224 1.049 3.54 0 .79-.078 1.562-.237 2.317a9.442 9.442 0 0 1-.736 2.182 7.533 7.533 0 0 1-1.235 1.844 5.388 5.388 0 0 1-1.788 1.271 5.66 5.66 0 0 1-2.333.476 3.823 3.823 0 0 1-1.664-.395c-.55-.262-.945-.623-1.182-1.085-.083.32-.197.784-.349 1.39-.146.604-.244.994-.287 1.171-.046.176-.13.469-.254.875-.083.3-.19.594-.32.877l-.393.769c-.17.33-.359.65-.567.956-.207.299-.463.656-.767 1.066l-.17.06-.113-.122c-.122-1.293-.185-2.066-.185-2.322 0-.756.09-1.605.268-2.547.175-.94.45-2.124.822-3.546.37-1.421.582-2.257.64-2.505-.262-.533-.394-1.228-.394-2.084 0-.683.213-1.323.641-1.925.429-.6.97-.9 1.628-.9.503 0 .893.166 1.172.5.281.334.418.753.418 1.265 0 .543-.18 1.33-.543 2.357-.363 1.029-.543 1.797-.543 2.306 0 .517.185.95.554 1.288.365.34.847.523 1.345.512.452 0 .87-.102 1.26-.309.382-.2.714-.486.968-.836a6.985 6.985 0 0 0 1.16-2.538c.11-.481.194-.939.246-1.369.056-.432.08-.84.08-1.228 0-1.423-.452-2.531-1.35-3.325-.901-.794-2.076-1.189-3.522-1.189-1.643 0-3.018.532-4.119 1.598-1.101 1.063-1.656 2.415-1.656 4.054 0 .362.055.71.159 1.049.101.336.212.604.332.803.118.195.23.385.332.56.102.176.156.302.156.377 0 .23-.06.53-.183.901-.126.371-.276.556-.456.556-.017 0-.088-.013-.21-.039a2.52 2.52 0 0 1-1.118-.69 3.616 3.616 0 0 1-.751-1.166 7.962 7.962 0 0 1-.402-1.333 5.568 5.568 0 0 1-.15-1.315Z"
      fill="#363853" /></svg
  ><svg
    fill="none"
    viewBox="0 0 21 21"
    id="search-icon"
    xmlns="http://www.w3.org/2000/svg">
    <ellipse
      cx="9.767"
      cy="9.841"
      rx="8.989"
      ry="8.884"
      stroke="#363853"
      stroke-width="1.5"
      stroke-linecap="round"
      stroke-linejoin="round" />
    <path
      d="m16.018 16.481 3.524 3.474"
      stroke="#363853"
      stroke-width="1.5"
      stroke-linecap="round"
      stroke-linejoin="round" /></svg
  ><svg
    fill="none"
    viewBox="0 0 35 37"
    id="store-icon"
    xmlns="http://www.w3.org/2000/svg">
    <g clip-path="url(#ka)">
      <path
        d="M26.688 32.188h-3.063v-8.79a1.904 1.904 0 0 0 1.392-2.546l-1.392-3.621v-6.919a.437.437 0 0 0-.438-.437H4.813a.437.437 0 0 0-.437.438v6.918l-1.392 3.62A1.902 1.902 0 0 0 4.375 23.4v8.788H1.312a.437.437 0 0 0-.437.438v3.063a.437.437 0 0 0 .438.437h25.375a.437.437 0 0 0 .437-.438v-3.062a.437.437 0 0 0-.438-.438Zm-4.813 0v-9.332a1.9 1.9 0 0 0 .875.516v8.816h-.875Zm-3.5.437v2.625h-1.75v-3.063h.875a.438.438 0 0 0 .438-.437v-1.313A.438.438 0 0 0 17.5 30h-2.625a.438.438 0 0 0-.438.438v1.312a.438.438 0 0 0 .438.438h.875v3.062H14v-2.625a.437.437 0 0 0-.438-.438h-.874v-1.312a.437.437 0 0 0-.438-.438h-.875v-7.04a1.902 1.902 0 0 0 1.081-.651 1.883 1.883 0 0 0 1.467.692h.154a1.885 1.885 0 0 0 1.467-.692c.063.076.132.147.206.213v1.354a2.19 2.19 0 0 0-2.188 2.187.437.437 0 0 0 .438.438h4.375a.437.437 0 0 0 .438-.438 2.19 2.19 0 0 0-2.188-2.188v-.914c.127.026.257.04.387.04h.136a1.901 1.901 0 0 0 1.484-.712 1.896 1.896 0 0 0 1.486.712h.085c.275 0 .547-.059.797-.173v7.172h-.875a.437.437 0 0 0-.438.438v1.313h-.875a.437.437 0 0 0-.437.437Zm-3.063-1.313v-.437h1.75v.438h-1.75ZM6.806 21.265l.966-3.515h1.776l-.652 3.952a1.024 1.024 0 0 1-1.013.86h-.085a1.028 1.028 0 0 1-.992-1.297Zm.195 2c.25.114.522.173.797.172h.085a1.895 1.895 0 0 0 1.486-.712 1.899 1.899 0 0 0 1.132.68v2.22H7v-2.36Zm3.852-.703a1.026 1.026 0 0 1-1.014-1.194l.596-3.618h1.791l-.21 3.841a1.027 1.027 0 0 1-1.027.971h-.136Zm3.971-.32a1.017 1.017 0 0 1-.746.32h-.154a1.026 1.026 0 0 1-1.026-1.08l.204-3.732h1.797l.205 3.729v.002a1.014 1.014 0 0 1-.28.76Zm1.163-.65-.211-3.842h1.791l.596 3.618a1.029 1.029 0 0 1-1.014 1.195h-.136a1.027 1.027 0 0 1-1.026-.972Zm.639 3.596a1.314 1.314 0 0 1 1.238.875h-3.35a1.315 1.315 0 0 1 1.237-.875h.875Zm4.395-3.03a1.02 1.02 0 0 1-.817.404h-.085a1.024 1.024 0 0 1-1.013-.86l-.652-3.952h1.776l.965 3.513v.002a1.023 1.023 0 0 1-.174.893Zm-.457 9.154H21v.875h-.438v-.874ZM24.2 21.166a1.028 1.028 0 1 1-1.95.641l-1.115-4.057h1.751l1.314 3.416ZM5.25 10.75h17.5v6.125H5.25V10.75ZM3.911 22.117a1.014 1.014 0 0 1-.112-.951l1.314-3.416h1.75L5.75 21.807a1.03 1.03 0 0 1-1.47.639 1.013 1.013 0 0 1-.368-.33Zm1.339 1.255a1.9 1.9 0 0 0 .875-.516v9.331H5.25v-8.815Zm3.5 11.878h-7v-2.188h7v2.188Zm.438-3.063H7V26.5h3.5v8.75h-.875v-2.625a.437.437 0 0 0-.438-.438Zm2.187-.874h.438v1.312a.437.437 0 0 0 .437.438h.875v2.187h-1.75v-3.938ZM26.25 35.25h-7v-2.188h7v2.188Z"
        fill="url(#kb)" />
      <path
        d="M17.063 14.25h-.475a2.63 2.63 0 0 0-2.15-2.15v-.475a.438.438 0 0 0-.876 0v.475a2.63 2.63 0 0 0-2.15 2.15h-.475a.438.438 0 0 0-.437.438 1.752 1.752 0 0 0 1.75 1.75h3.5a1.752 1.752 0 0 0 1.75-1.75.438.438 0 0 0-.438-.438ZM14 12.937a1.753 1.753 0 0 1 1.695 1.313h-3.39A1.753 1.753 0 0 1 14 12.937Zm1.75 2.626h-3.5a.875.875 0 0 1-.758-.438h5.016a.876.876 0 0 1-.758.438Z"
        fill="url(#kc)" />
      <path
        d="M10.743 13.302a.437.437 0 0 0 .194-.364v-1.313h-.874v1.063a1.93 1.93 0 0 1-.438.16v-1.223H8.75v1.223a1.93 1.93 0 0 1-.438-.16v-1.063h-.874v1.313a.437.437 0 0 0 .194.364c.337.224.718.373 1.118.437v2.698h.875V13.74c.4-.064.781-.213 1.118-.438Z"
        fill="url(#kd)" />
      <path
        d="M18.812 11.188a1.75 1.75 0 0 0-.437 3.444v1.806h.875v-1.806a1.75 1.75 0 0 0-.438-3.444Zm0 2.624a.874.874 0 1 1 0-1.748.874.874 0 0 1 0 1.748Z"
        fill="url(#ke)" />
    </g>
    <ellipse
      opacity=".15"
      cx="22.097"
      cy="12.5"
      rx="12.097"
      ry="12.5"
      fill="url(#kf)" />
    <defs>
      <linearGradient
        id="kb"
        x1=".875"
        y1="22.125"
        x2="26.496"
        y2="22.239"
        gradientUnits="userSpaceOnUse">
        <stop stop-color="#FF5050" />
        <stop offset="1" stop-color="#FF7070" stop-opacity=".84" />
      </linearGradient>
      <linearGradient
        id="kc"
        x1="10.5"
        y1="13.637"
        x2="17.332"
        y2="13.678"
        gradientUnits="userSpaceOnUse">
        <stop stop-color="#FF5050" />
        <stop offset="1" stop-color="#FF7070" stop-opacity=".84" />
      </linearGradient>
      <linearGradient
        id="kd"
        x1="7.438"
        y1="13.871"
        x2="10.854"
        y2="13.882"
        gradientUnits="userSpaceOnUse">
        <stop stop-color="#FF5050" />
        <stop offset="1" stop-color="#FF7070" stop-opacity=".84" />
      </linearGradient>
      <linearGradient
        id="ke"
        x1="17.062"
        y1="13.637"
        x2="20.479"
        y2="13.648"
        gradientUnits="userSpaceOnUse">
        <stop stop-color="#FF5050" />
        <stop offset="1" stop-color="#FF7070" stop-opacity=".84" />
      </linearGradient>
      <linearGradient
        id="kf"
        x1="10"
        y1="11.667"
        x2="33.614"
        y2="11.769"
        gradientUnits="userSpaceOnUse">
        <stop stop-color="#FF7070" />
        <stop offset="1" stop-color="#FF7070" stop-opacity=".65" />
      </linearGradient>
      <clipPath id="ka">
        <path fill="#fff" transform="translate(0 9)" d="M0 0h28v28H0z" />
      </clipPath>
    </defs></svg
  ><svg
    fill="none"
    viewBox="0 0 41 34"
    id="timer-icon"
    xmlns="http://www.w3.org/2000/svg">
    <g clip-path="url(#la)">
      <path
        d="m31.754 12.881.996-.996c.288-.288.447-.67.447-1.078 0-.407-.159-.79-.447-1.077l-1.14-1.141a1.514 1.514 0 0 0-1.078-.447c-.407 0-.79.159-1.078.447l-.996.996a12.7 12.7 0 0 0-4.412-1.933V6.179h.606a1.49 1.49 0 0 0 1.488-1.488v-2.07a1.49 1.49 0 0 0-1.488-1.488H17.8a1.49 1.49 0 0 0-1.488 1.488v2.07c0 .82.668 1.488 1.488 1.488h.606v1.477a12.703 12.703 0 0 0-4.392 1.929l-.996-.996a1.514 1.514 0 0 0-1.078-.447c-.407 0-.79.159-1.078.447l-1.14 1.14a1.526 1.526 0 0 0 0 2.156l.176.177H5.19a.664.664 0 0 0 0 1.328h5.193a12.713 12.713 0 0 0-1.215 2.552H.664a.664.664 0 0 0 0 1.328H8.79a12.747 12.747 0 0 0-.314 2.553H4.25a.664.664 0 0 0 0 1.328h4.265c.072.879.233 1.733.474 2.552H3.32a.664.664 0 0 0 0 1.329h6.142c1.932 4.598 6.482 7.835 11.774 7.835C28.274 32.867 34 27.142 34 20.104c0-2.678-.83-5.167-2.246-7.222Zm-1.36-3.353a.192.192 0 0 1 .138-.058c.037 0 .091.01.139.058l1.14 1.14a.193.193 0 0 1 .058.14c0 .037-.01.09-.058.138l-.873.873c-.435-.509-.91-.983-1.418-1.418l.873-.873ZM17.64 4.69v-2.07a.16.16 0 0 1 .16-.16h6.852a.16.16 0 0 1 .16.16v2.07a.16.16 0 0 1-.16.16H17.8a.16.16 0 0 1-.16-.16Zm2.095 1.488h2.983v1.247a12.835 12.835 0 0 0-2.983.002V6.179Zm-9.075 4.49 1.141-1.141a.192.192 0 0 1 .139-.058c.037 0 .091.01.139.058l.873.873c-.51.435-.983.91-1.418 1.418l-.874-.873a.196.196 0 0 1 0-.277Zm10.576 20.87C14.93 31.54 9.8 26.41 9.8 20.103S14.93 8.667 21.236 8.667s11.436 5.13 11.436 11.436-5.13 11.436-11.436 11.436Z"
        fill="url(#lb)" />
      <path
        d="m25.619 14.781-3.14 3.14a2.498 2.498 0 0 0-1.243-.331 2.517 2.517 0 0 0-2.514 2.513 2.517 2.517 0 0 0 2.514 2.514 2.516 2.516 0 0 0 2.514-2.514c0-.452-.121-.877-.331-1.244l3.139-3.139a.664.664 0 0 0-.94-.939Zm-4.383 6.508a1.187 1.187 0 0 1-1.186-1.186 1.187 1.187 0 0 1 2.371 0c0 .654-.531 1.186-1.185 1.186Z"
        fill="url(#lc)" />
      <path
        d="M21.236 11.494a.669.669 0 0 0 .47-.195.67.67 0 0 0 .194-.47.669.669 0 0 0-.664-.664.67.67 0 0 0-.47.195.668.668 0 0 0 .47 1.134Z"
        fill="url(#ld)" />
      <path
        d="M21.236 28.713a.669.669 0 0 0-.47.194.668.668 0 0 0 .47 1.134.666.666 0 0 0 .664-.664.669.669 0 0 0-.194-.47.669.669 0 0 0-.47-.194Z"
        fill="url(#le)" />
      <path
        d="M14.678 12.882a.67.67 0 0 0-.47.194.67.67 0 0 0-.194.47.67.67 0 0 0 .195.47.669.669 0 0 0 .939 0 .67.67 0 0 0 .194-.47.67.67 0 0 0-.194-.47.669.669 0 0 0-.47-.194Z"
        fill="url(#lf)" />
      <path
        d="M27.794 25.997a.67.67 0 0 0-.47.194.668.668 0 0 0 0 .94.669.669 0 0 0 .94 0 .67.67 0 0 0 .194-.47.669.669 0 0 0-.664-.664Z"
        fill="url(#lg)" />
      <path
        d="M14.678 25.997a.67.67 0 0 0-.47.194.669.669 0 0 0-.194.47.67.67 0 0 0 .195.47.67.67 0 0 0 .47.194.669.669 0 0 0 .469-.195.67.67 0 0 0 .194-.47.67.67 0 0 0-.194-.469.67.67 0 0 0-.47-.194Z"
        fill="url(#lh)" />
      <path
        d="M11.962 19.44a.667.667 0 0 0-.664.663.666.666 0 0 0 .664.664.666.666 0 0 0 .665-.664.669.669 0 0 0-.665-.664Z"
        fill="url(#li)" />
      <path
        d="M30.98 19.634a.667.667 0 0 0-1.134.47.668.668 0 0 0 .664.663.669.669 0 0 0 .47-.194.67.67 0 0 0 .194-.47.67.67 0 0 0-.195-.47Z"
        fill="url(#lj)" />
      <path
        d="M.664 23.704a.669.669 0 0 0-.47.194.67.67 0 0 0-.194.47.67.67 0 0 0 .195.47.67.67 0 0 0 .47.194.669.669 0 0 0 .468-.195.67.67 0 0 0 .195-.47.67.67 0 0 0-.195-.47.668.668 0 0 0-.469-.193Z"
        fill="url(#lk)" />
      <path
        d="M30.314 18.087a.664.664 0 0 0 .447-.826 9.964 9.964 0 0 0-6.704-6.689.664.664 0 1 0-.376 1.274 8.576 8.576 0 0 1 5.807 5.794.664.664 0 0 0 .826.447Z"
        fill="url(#ll)" />
    </g>
    <ellipse
      opacity=".35"
      cx="27.018"
      cy="13.5"
      rx="13.018"
      ry="13.5"
      fill="url(#lm)" />
    <defs>
      <linearGradient
        id="lb"
        x1="0"
        y1="15.942"
        x2="33.185"
        y2="16.101"
        gradientUnits="userSpaceOnUse">
        <stop stop-color="#FF7D3D" />
        <stop offset="1" stop-color="#F99462" stop-opacity=".71" />
      </linearGradient>
      <linearGradient
        id="lc"
        x1="18.722"
        y1="18.334"
        x2="26.56"
        y2="18.369"
        gradientUnits="userSpaceOnUse">
        <stop stop-color="#FF7D3D" />
        <stop offset="1" stop-color="#F99462" stop-opacity=".71" />
      </linearGradient>
      <linearGradient
        id="ld"
        x1="20.572"
        y1="10.785"
        x2="21.868"
        y2="10.791"
        gradientUnits="userSpaceOnUse">
        <stop stop-color="#FF7D3D" />
        <stop offset="1" stop-color="#F99462" stop-opacity=".71" />
      </linearGradient>
      <linearGradient
        id="le"
        x1="20.572"
        y1="29.333"
        x2="21.868"
        y2="29.338"
        gradientUnits="userSpaceOnUse">
        <stop stop-color="#FF7D3D" />
        <stop offset="1" stop-color="#F99462" stop-opacity=".71" />
      </linearGradient>
      <linearGradient
        id="lf"
        x1="14.014"
        y1="13.501"
        x2="15.311"
        y2="13.507"
        gradientUnits="userSpaceOnUse">
        <stop stop-color="#FF7D3D" />
        <stop offset="1" stop-color="#F99462" stop-opacity=".71" />
      </linearGradient>
      <linearGradient
        id="lg"
        x1="27.13"
        y1="26.616"
        x2="28.426"
        y2="26.622"
        gradientUnits="userSpaceOnUse">
        <stop stop-color="#FF7D3D" />
        <stop offset="1" stop-color="#F99462" stop-opacity=".71" />
      </linearGradient>
      <linearGradient
        id="lh"
        x1="14.014"
        y1="26.616"
        x2="15.311"
        y2="26.622"
        gradientUnits="userSpaceOnUse">
        <stop stop-color="#FF7D3D" />
        <stop offset="1" stop-color="#F99462" stop-opacity=".71" />
      </linearGradient>
      <linearGradient
        id="li"
        x1="11.298"
        y1="20.059"
        x2="12.595"
        y2="20.065"
        gradientUnits="userSpaceOnUse">
        <stop stop-color="#FF7D3D" />
        <stop offset="1" stop-color="#F99462" stop-opacity=".71" />
      </linearGradient>
      <linearGradient
        id="lj"
        x1="29.846"
        y1="20.059"
        x2="31.142"
        y2="20.065"
        gradientUnits="userSpaceOnUse">
        <stop stop-color="#FF7D3D" />
        <stop offset="1" stop-color="#F99462" stop-opacity=".71" />
      </linearGradient>
      <linearGradient
        id="lk"
        x1="0"
        y1="24.323"
        x2="1.296"
        y2="24.329"
        gradientUnits="userSpaceOnUse">
        <stop stop-color="#FF7D3D" />
        <stop offset="1" stop-color="#F99462" stop-opacity=".71" />
      </linearGradient>
      <linearGradient
        id="ll"
        x1="23.204"
        y1="14.077"
        x2="30.607"
        y2="14.11"
        gradientUnits="userSpaceOnUse">
        <stop stop-color="#FF7D3D" />
        <stop offset="1" stop-color="#F99462" stop-opacity=".71" />
      </linearGradient>
      <linearGradient
        id="lm"
        x1="14"
        y1="12.6"
        x2="39.412"
        y2="12.709"
        gradientUnits="userSpaceOnUse">
        <stop stop-color="#F99462" />
        <stop offset="1" stop-color="#F99462" stop-opacity=".65" />
      </linearGradient>
      <clipPath id="la"><path fill="#fff" d="M0 0h34v34H0z" /></clipPath>
    </defs>
  </svg>
  <svg fill="none" id="toparrow-icon" xmlns="http://www.w3.org/2000/svg">
    <path
      d="M13.121 6.293a1 1 0 0 0 0 1.414L16.413 11 6 11.007a1 1 0 0 0 0 2L16.414 13l-3.293 3.293a1 1 0 1 0 1.414 1.414l3.586-3.585a3 3 0 0 0 0-4.243l-3.586-3.586a1 1 0 0 0-1.414 0Z"
      fill="#fff" />
  </svg>
  <svg
    fill="none"
    viewBox="0 0 22 22"
    id="toptimer-icon"
    xmlns="http://www.w3.org/2000/svg">
    <g opacity=".9" fill="#363853">
      <path
        d="M11.575 2.54v-.959a.611.611 0 0 0-1.222 0v.965c-4.803.333-8.609 4.344-8.609 9.23 0 5.102 4.153 9.254 9.256 9.254 5.103 0 9.256-4.152 9.256-9.255 0-4.91-3.845-8.937-8.681-9.235ZM11 19.808c-4.43 0-8.033-3.604-8.033-8.033 0-4.43 3.603-8.033 8.033-8.033s8.033 3.604 8.033 8.033c0 4.429-3.603 8.033-8.033 8.033Z" />
      <path
        d="M7.863 17.322a6.39 6.39 0 0 1-3.234-5.547.305.305 0 1 0-.611 0 7.004 7.004 0 0 0 3.544 6.079.306.306 0 0 0 .301-.532ZM9.53 18.16a6.94 6.94 0 0 1-.353-.102.306.306 0 0 0-.186.582c.127.04.255.078.385.11a.305.305 0 0 0 .153-.59ZM18.885 5.728a.611.611 0 0 0 .863-.865L18.162 3.28a.61.61 0 1 0-.863.865l1.586 1.583ZM11.575 11.661V6.776a.611.611 0 0 0-1.223 0v5.15c0 .168.088.328.21.443l1.789 1.672a.61.61 0 0 0 .657.117.61.61 0 0 0 .163-1.006l-1.596-1.49Z" />
    </g></svg
  ><svg
    fill="none"
    viewBox="0 0 39 39"
    id="twitter"
    xmlns="http://www.w3.org/2000/svg">
    <circle cx="19.5" cy="19.5" r="19.5" fill="#EEEEEF" />
    <path
      d="M29.763 13.27a8.434 8.434 0 0 1-2.422.652 4.195 4.195 0 0 0 1.85-2.32 8.304 8.304 0 0 1-2.67 1.017 4.197 4.197 0 0 0-3.073-1.33 4.205 4.205 0 0 0-4.206 4.209c0 .326.04.651.104.964a11.954 11.954 0 0 1-8.673-4.403 4.177 4.177 0 0 0-.573 2.124c0 1.46.743 2.748 1.875 3.506a4.243 4.243 0 0 1-1.902-.536v.052a4.207 4.207 0 0 0 3.372 4.13 4.457 4.457 0 0 1-1.107.142c-.274 0-.533-.027-.795-.064a4.214 4.214 0 0 0 3.933 2.919 8.431 8.431 0 0 1-5.223 1.798c-.353 0-.678-.012-1.016-.052a11.911 11.911 0 0 0 6.46 1.887c7.736 0 11.97-6.409 11.97-11.971 0-.183 0-.365-.013-.548a9.058 9.058 0 0 0 2.11-2.176Z"
      fill="#363853" />
  </svg>
</svg>
