<?xml version="1.0" encoding="utf-8"?><svg
  xmlns="http://www.w3.org/2000/svg"
  xmlns:xlink="http://www.w3.org/1999/xlink">
  <symbol
    fill="none"
    viewBox="0 0 21 20"
    id="basket-icon"
    xmlns="http://www.w3.org/2000/svg">
    <path
      d="m1 1.176 2.08.356.963 11.34c.077.926.86 1.636 1.8 1.633h10.909a1.794 1.794 0 0 0 1.785-1.528l.949-6.482a1.328 1.328 0 0 0-1.135-1.501c-.064-.009-14.937-.014-14.937-.014M12.375 8.633h2.773"
      stroke="#363853"
      stroke-width="1.5"
      stroke-linecap="round"
      stroke-linejoin="round" />
    <path
      fill-rule="evenodd"
      clip-rule="evenodd"
      d="M5.404 17.932a.54.54 0 0 1 .544.538.541.541 0 0 1-.544.539.541.541 0 0 1-.544-.54.54.54 0 0 1 .544-.537ZM16.685 17.932c.3 0 .545.24.545.538a.542.542 0 0 1-.545.539.541.541 0 0 1-.544-.54.54.54 0 0 1 .544-.537Z"
      fill="#363853"
      stroke="#363853"
      stroke-width="1.5"
      stroke-linecap="round"
      stroke-linejoin="round" />
  </symbol>
  <symbol
    fill="none"
    viewBox="0 0 22 20"
    id="email"
    xmlns="http://www.w3.org/2000/svg">
    <path
      d="m16.903 6.851-4.444 3.613c-.84.666-2.02.666-2.86 0L5.12 6.851"
      stroke="#363853"
      stroke-width="1.5"
      stroke-linecap="round"
      stroke-linejoin="round" />
    <path
      clip-rule="evenodd"
      d="M15.909 19C18.95 19.008 21 16.51 21 13.438V6.57C21 3.499 18.95 1 15.909 1H6.09C3.05 1 1 3.499 1 6.57v6.868C1 16.51 3.05 19.008 6.091 19h9.818Z"
      stroke="#363853"
      stroke-width="1.5"
      stroke-linecap="round"
      stroke-linejoin="round" />
  </symbol>
  <symbol
    fill="none"
    viewBox="0 0 39 39"
    id="facebook"
    xmlns="http://www.w3.org/2000/svg">
    <circle cx="19.5" cy="19.5" r="19.5" fill="#EEEEEF" />
    <path
      d="M16.915 29.763v-9.631h-2.547v-3.468h2.547v-2.962c0-2.328 1.505-4.465 4.971-4.465 1.404 0 2.441.134 2.441.134l-.082 3.239s-1.058-.01-2.213-.01c-1.25 0-1.45.575-1.45 1.532v2.532h3.763l-.164 3.468h-3.6v9.631h-3.666Z"
      fill="#363853" />
  </symbol>
  <symbol
    fill="none"
    viewBox="0 0 39 39"
    id="instagram"
    xmlns="http://www.w3.org/2000/svg">
    <circle cx="19.5" cy="19.5" r="19.5" fill="#EEEEEF" />
    <path
      d="M18.985 16.762a3.258 3.258 0 0 0-3.252 3.251 3.258 3.258 0 0 0 3.252 3.252 3.258 3.258 0 0 0 3.25-3.252 3.258 3.258 0 0 0-3.25-3.251Zm9.751 3.251c0-1.346.012-2.68-.063-4.024-.076-1.562-.432-2.947-1.573-4.088-1.144-1.144-2.527-1.498-4.088-1.574-1.347-.075-2.681-.063-4.025-.063-1.346 0-2.68-.012-4.025.063-1.56.076-2.946.432-4.088 1.574-1.144 1.143-1.497 2.527-1.573 4.088-.076 1.346-.063 2.68-.063 4.024 0 1.344-.013 2.68.063 4.025.076 1.56.432 2.946 1.573 4.088 1.144 1.144 2.527 1.497 4.088 1.573 1.347.076 2.68.063 4.025.063 1.346 0 2.68.013 4.025-.063 1.56-.076 2.946-.432 4.087-1.573 1.145-1.144 1.498-2.527 1.574-4.088.078-1.344.063-2.678.063-4.025Zm-9.752 5.003a4.996 4.996 0 0 1-5.002-5.003 4.996 4.996 0 0 1 5.003-5.003 4.996 4.996 0 0 1 5.002 5.003 4.996 4.996 0 0 1-5.002 5.003Zm5.208-9.042a1.167 1.167 0 0 1-1.168-1.168c0-.647.522-1.169 1.168-1.169a1.167 1.167 0 0 1 .827 1.995 1.166 1.166 0 0 1-.827.342Z"
      fill="#363853" />
  </symbol>
  <symbol
    fill="none"
    viewBox="0 0 18 20"
    id="location"
    xmlns="http://www.w3.org/2000/svg">
    <g
      clip-rule="evenodd"
      stroke="#363853"
      stroke-width="1.5"
      stroke-linecap="round"
      stroke-linejoin="round">
      <path d="M11.5 8.5a2.5 2.5 0 1 0-5 0 2.5 2.5 0 0 0 5 0Z" />
      <path
        d="M9 19C7.8 19 1.5 13.898 1.5 8.563 1.5 4.387 4.857 1 9 1c4.142 0 7.5 3.387 7.5 7.563C16.5 13.898 10.198 19 9 19Z" />
    </g>
  </symbol>
  <symbol
    fill="none"
    viewBox="0 0 102 25"
    id="logo"
    xmlns="http://www.w3.org/2000/svg">
    <path
      d="M1.366 24.292a.764.764 0 0 1-.561-.231.764.764 0 0 1-.231-.561V2.017c0-.242.077-.44.231-.594a.764.764 0 0 1 .561-.231h14.52c.242 0 .44.077.594.231a.804.804 0 0 1 .231.594v2.178c0 .22-.077.407-.231.561a.804.804 0 0 1-.594.231H5.029v5.841H15.16c.242 0 .44.077.594.231.154.132.231.319.231.561v2.046c0 .242-.077.44-.231.594a.88.88 0 0 1-.594.198H5.029v6.039H16.15c.242 0 .44.077.594.231a.804.804 0 0 1 .231.594V23.5c0 .22-.077.407-.231.561a.804.804 0 0 1-.594.231H1.366Z"
      fill="#FF6838" />
    <path
      d="M23.544 24.292a.764.764 0 0 1-.56-.231.764.764 0 0 1-.232-.561V2.017c0-.242.077-.44.231-.594a.764.764 0 0 1 .561-.231h14.322c.242 0 .44.077.594.231a.804.804 0 0 1 .231.594v2.31c0 .242-.077.44-.23.594a.88.88 0 0 1-.595.198H27.273v6.27h9.933c.242 0 .44.077.594.231a.804.804 0 0 1 .231.594v2.31c0 .22-.077.407-.23.561a.804.804 0 0 1-.595.231h-9.933V23.5c0 .22-.077.407-.23.561a.804.804 0 0 1-.595.231h-2.904Zm27.55.33c-1.76 0-3.246-.308-4.456-.924-1.188-.616-2.1-1.485-2.739-2.607-.616-1.122-.968-2.431-1.056-3.927-.022-.396-.033-.88-.033-1.452s.011-1.056.033-1.452c.088-1.518.451-2.827 1.09-3.927.66-1.122 1.583-1.991 2.771-2.607 1.21-.616 2.673-.924 4.39-.924 1.715 0 3.167.308 4.355.924 1.21.616 2.134 1.485 2.772 2.607.66 1.1 1.034 2.409 1.122 3.927.022.396.033.88.033 1.452s-.01 1.056-.033 1.452c-.088 1.496-.45 2.805-1.089 3.927-.616 1.122-1.529 1.991-2.739 2.607-1.188.616-2.662.924-4.422.924Zm0-3.267c1.165 0 2.067-.363 2.705-1.089.638-.748.99-1.837 1.056-3.267.022-.33.033-.759.033-1.287 0-.528-.01-.957-.033-1.287-.066-1.408-.418-2.486-1.056-3.234-.638-.748-1.54-1.122-2.706-1.122s-2.068.374-2.706 1.122c-.638.748-.99 1.826-1.056 3.234-.022.33-.033.759-.033 1.287 0 .528.011.957.033 1.287.066 1.43.418 2.519 1.056 3.267.638.726 1.54 1.089 2.706 1.089Zm21.179 3.267c-1.76 0-3.245-.308-4.455-.924-1.188-.616-2.101-1.485-2.74-2.607-.615-1.122-.967-2.431-1.055-3.927-.022-.396-.033-.88-.033-1.452s.01-1.056.033-1.452c.088-1.518.45-2.827 1.089-3.927.66-1.122 1.584-1.991 2.772-2.607 1.21-.616 2.673-.924 4.389-.924 1.716 0 3.168.308 4.356.924 1.21.616 2.134 1.485 2.772 2.607.66 1.1 1.034 2.409 1.122 3.927.022.396.033.88.033 1.452s-.011 1.056-.033 1.452c-.088 1.496-.451 2.805-1.09 3.927-.615 1.122-1.528 1.991-2.738 2.607-1.188.616-2.662.924-4.422.924Zm0-3.267c1.166 0 2.068-.363 2.706-1.089.638-.748.99-1.837 1.056-3.267.022-.33.033-.759.033-1.287 0-.528-.011-.957-.033-1.287-.066-1.408-.418-2.486-1.056-3.234-.638-.748-1.54-1.122-2.706-1.122s-2.068.374-2.706 1.122c-.638.748-.99 1.826-1.056 3.234-.022.33-.033.759-.033 1.287 0 .528.01.957.033 1.287.066 1.43.418 2.519 1.056 3.267.638.726 1.54 1.089 2.706 1.089Zm19.958 3.267c-1.144 0-2.156-.187-3.036-.561a5.91 5.91 0 0 1-2.145-1.65c-.572-.704-1.012-1.529-1.32-2.475-.308-.968-.484-2.024-.528-3.168a19.265 19.265 0 0 1-.033-1.056c0-.33.011-.693.033-1.089.044-1.1.209-2.123.495-3.069.308-.946.748-1.771 1.32-2.475a6.056 6.056 0 0 1 2.178-1.683c.88-.396 1.892-.594 3.036-.594 1.188 0 2.189.209 3.003.627.836.396 1.529.913 2.079 1.551V1.654c0-.22.066-.407.198-.561a.804.804 0 0 1 .594-.231h2.805c.22 0 .407.077.561.231a.764.764 0 0 1 .231.561V23.5c0 .22-.077.407-.231.561a.764.764 0 0 1-.561.231h-2.607a.804.804 0 0 1-.594-.231.833.833 0 0 1-.198-.561v-1.221c-.55.682-1.254 1.243-2.112 1.683-.836.44-1.892.66-3.168.66Zm1.221-3.531c.924 0 1.661-.209 2.211-.627.55-.418.957-.946 1.221-1.584.264-.66.407-1.331.429-2.013.022-.396.033-.814.033-1.254 0-.462-.011-.891-.033-1.287a4.647 4.647 0 0 0-.462-1.881 3.825 3.825 0 0 0-1.254-1.518c-.55-.396-1.265-.594-2.145-.594-.924 0-1.661.209-2.211.627a3.385 3.385 0 0 0-1.155 1.584 7.508 7.508 0 0 0-.429 2.178c-.022.66-.022 1.32 0 1.98.044.792.187 1.518.429 2.178.242.66.627 1.199 1.155 1.617.55.396 1.287.594 2.211.594Z"
      fill="#363853" />
  </symbol>
  <symbol
    fill="none"
    viewBox="0 0 22 22"
    id="phone"
    xmlns="http://www.w3.org/2000/svg">
    <path
      d="M13.353 1.5a7.97 7.97 0 0 1 7.04 7.032M13.353 5.043a4.426 4.426 0 0 1 3.5 3.5"
      stroke="#363853"
      stroke-width="1.5"
      stroke-linecap="round"
      stroke-linejoin="round" />
    <path
      clip-rule="evenodd"
      d="M10.031 11.472c3.99 3.988 4.894-.625 7.434 1.913 2.449 2.448 3.857 2.938.754 6.04-.389.312-2.858 4.07-11.535-4.605-8.677-8.676-4.922-11.148-4.61-11.536 3.11-3.11 3.593-1.695 6.041.753 2.54 2.54-2.072 3.447 1.916 7.435Z"
      stroke="#363853"
      stroke-width="1.5"
      stroke-linecap="round"
      stroke-linejoin="round" />
  </symbol>
  <symbol
    fill="none"
    viewBox="0 0 39 39"
    id="pinterest"
    xmlns="http://www.w3.org/2000/svg">
    <circle cx="19.5" cy="19.5" r="19.5" fill="#EEEEEF" />
    <path
      d="M11.29 16.6c0-.888.155-1.726.46-2.509a6.421 6.421 0 0 1 1.28-2.055 8.685 8.685 0 0 1 1.874-1.516c.71-.43 1.48-.754 2.284-.963a9.775 9.775 0 0 1 2.492-.32c1.3 0 2.509.274 3.63.822a6.868 6.868 0 0 1 2.727 2.389c.7 1.043 1.049 2.224 1.049 3.54 0 .79-.078 1.562-.237 2.317a9.442 9.442 0 0 1-.736 2.182 7.533 7.533 0 0 1-1.235 1.844 5.388 5.388 0 0 1-1.788 1.271 5.66 5.66 0 0 1-2.333.476 3.823 3.823 0 0 1-1.664-.395c-.55-.262-.945-.623-1.182-1.085-.083.32-.197.784-.349 1.39-.146.604-.244.994-.287 1.171-.046.176-.13.469-.254.875-.083.3-.19.594-.32.877l-.393.769c-.17.33-.359.65-.567.956-.207.299-.463.656-.767 1.066l-.17.06-.113-.122c-.122-1.293-.185-2.066-.185-2.322 0-.756.09-1.605.268-2.547.175-.94.45-2.124.822-3.546.37-1.421.582-2.257.64-2.505-.262-.533-.394-1.228-.394-2.084 0-.683.213-1.323.641-1.925.429-.6.97-.9 1.628-.9.503 0 .893.166 1.172.5.281.334.418.753.418 1.265 0 .543-.18 1.33-.543 2.357-.363 1.029-.543 1.797-.543 2.306 0 .517.185.95.554 1.288.365.34.847.523 1.345.512.452 0 .87-.102 1.26-.309.382-.2.714-.486.968-.836a6.985 6.985 0 0 0 1.16-2.538c.11-.481.194-.939.246-1.369.056-.432.08-.84.08-1.228 0-1.423-.452-2.531-1.35-3.325-.901-.794-2.076-1.189-3.522-1.189-1.643 0-3.018.532-4.119 1.598-1.101 1.063-1.656 2.415-1.656 4.054 0 .362.055.71.159 1.049.101.336.212.604.332.803.118.195.23.385.332.56.102.176.156.302.156.377 0 .23-.06.53-.183.901-.126.371-.276.556-.456.556-.017 0-.088-.013-.21-.039a2.52 2.52 0 0 1-1.118-.69 3.616 3.616 0 0 1-.751-1.166 7.962 7.962 0 0 1-.402-1.333 5.568 5.568 0 0 1-.15-1.315Z"
      fill="#363853" />
  </symbol>
  <symbol
    fill="none"
    viewBox="0 0 21 21"
    id="search-icon"
    xmlns="http://www.w3.org/2000/svg">
    <ellipse
      cx="9.767"
      cy="9.841"
      rx="8.989"
      ry="8.884"
      stroke="#363853"
      stroke-width="1.5"
      stroke-linecap="round"
      stroke-linejoin="round" />
    <path
      d="m16.018 16.481 3.524 3.474"
      stroke="#363853"
      stroke-width="1.5"
      stroke-linecap="round"
      stroke-linejoin="round" />
  </symbol>
  <symbol
    fill="none"
    viewBox="0 0 39 39"
    id="twitter"
    xmlns="http://www.w3.org/2000/svg">
    <circle cx="19.5" cy="19.5" r="19.5" fill="#EEEEEF" />
    <path
      d="M29.763 13.27a8.434 8.434 0 0 1-2.422.652 4.195 4.195 0 0 0 1.85-2.32 8.304 8.304 0 0 1-2.67 1.017 4.197 4.197 0 0 0-3.073-1.33 4.205 4.205 0 0 0-4.206 4.209c0 .326.04.651.104.964a11.954 11.954 0 0 1-8.673-4.403 4.177 4.177 0 0 0-.573 2.124c0 1.46.743 2.748 1.875 3.506a4.243 4.243 0 0 1-1.902-.536v.052a4.207 4.207 0 0 0 3.372 4.13 4.457 4.457 0 0 1-1.107.142c-.274 0-.533-.027-.795-.064a4.214 4.214 0 0 0 3.933 2.919 8.431 8.431 0 0 1-5.223 1.798c-.353 0-.678-.012-1.016-.052a11.911 11.911 0 0 0 6.46 1.887c7.736 0 11.97-6.409 11.97-11.971 0-.183 0-.365-.013-.548a9.058 9.058 0 0 0 2.11-2.176Z"
      fill="#363853" />
  </symbol>
</svg>
