<svg
  width="22"
  height="18"
  viewBox="0 0 22 18"
  xmlns="http://www.w3.org/2000/svg">
  <path
    d="M20.9 10.1251H3.75551L9.57778 16.0797C10.0073 16.5191 10.0073 17.2312 9.57778 17.6705C9.14823 18.1098 8.45166 18.1098 8.02211 17.6705L0.32216 9.79545C-0.107387 9.35613 -0.107387 8.64372 0.32216 8.20469L8.02211 0.329628C8.23689 0.10997 8.51848 0 8.80008 0C9.08141 0 9.363 0.10997 9.57778 0.329628C10.0073 0.768944 10.0073 1.48135 9.57778 1.92039L3.75551 7.87506H20.9C21.5075 7.87506 22 8.37878 22 9.00007C22 9.62136 21.5075 10.1251 20.9 10.1251Z" />
</svg>
