<svg
  width="22"
  height="18"
  viewBox="0 0 22 18"
  xmlns="http://www.w3.org/2000/svg">
  <path
    d="M1.09999 10.1251H18.2445L12.4222 16.0797C11.9927 16.5191 11.9927 17.2312 12.4222 17.6705C12.8518 18.1098 13.5483 18.1098 13.9779 17.6705L21.6778 9.79545C22.1074 9.35613 22.1074 8.64372 21.6778 8.20469L13.9779 0.329628C13.7631 0.10997 13.4815 0 13.1999 0C12.9186 0 12.637 0.10997 12.4222 0.329628C11.9927 0.768944 11.9927 1.48135 12.4222 1.92039L18.2445 7.87506H1.09999C0.492522 7.87506 0 8.37878 0 9.00007C0 9.62136 0.492522 10.1251 1.09999 10.1251Z" />
</svg>
